<svg id="Layer_2" data-name="Layer 2" xmlns="http://www.w3.org/2000/svg" viewBox="0 0 225.89 227.36"><defs><style>.cls-1{fill:#fff;}</style></defs><title>50th-seal</title><path class="cls-1" d="M97,234.6a0.25,0.25,0,0,1-.31.18l-0.58-.15a0.25,0.25,0,0,1-.18-0.31l2.36-8.74a0.26,0.26,0,0,1,.31-0.18l0.48,0.13a0.26,0.26,0,0,1,.18.31Zm-4.61-1.3a0.26,0.26,0,0,1-.32.17l-0.57-.18a0.25,0.25,0,0,1-.17-0.32L94,224.34a0.26,0.26,0,0,1,.32-0.17l0.49,0.15a0.26,0.26,0,0,1,.17.32Zm-4.56-1.5a0.25,0.25,0,0,1-.32.16l-0.57-.2a0.25,0.25,0,0,1-.15-0.33l3.1-8.5a0.26,0.26,0,0,1,.33-0.15l0.47,0.17a0.26,0.26,0,0,1,.16.33Zm-4.49-1.69a0.25,0.25,0,0,1-.33.14L82.42,230a0.25,0.25,0,0,1-.14-0.33l3.46-8.36a0.26,0.26,0,0,1,.33-0.14l0.46,0.19a0.26,0.26,0,0,1,.14.33Zm-4.41-1.88a0.25,0.25,0,0,1-.34.13L78,228.1a0.26,0.26,0,0,1-.12-0.34l3.81-8.21a0.26,0.26,0,0,1,.34-0.12l0.46,0.21a0.26,0.26,0,0,1,.13.34Zm-4.33-2.07a0.26,0.26,0,0,1-.34.11L73.7,226a0.26,0.26,0,0,1-.11-0.34l4.16-8a0.26,0.26,0,0,1,.34-0.11l0.45,0.23a0.26,0.26,0,0,1,.11.34Zm-4.23-2.25a0.25,0.25,0,0,1-.35.1l-0.52-.3a0.25,0.25,0,0,1-.09-0.35l4.5-7.85a0.26,0.26,0,0,1,.35-0.1l0.44,0.25a0.26,0.26,0,0,1,.1.35Zm-4.13-2.43a0.25,0.25,0,0,1-.35.08l-0.51-.32a0.25,0.25,0,0,1-.08-0.35l4.83-7.65a0.26,0.26,0,0,1,.35-0.08l0.42,0.27a0.26,0.26,0,0,1,.08.35Zm-4-2.6a0.25,0.25,0,0,1-.35.07l-0.49-.34a0.26,0.26,0,0,1-.07-0.35l5.15-7.45a0.26,0.26,0,0,1,.36-0.07L67.2,211a0.26,0.26,0,0,1,.07.35Zm-3.91-2.77a0.26,0.26,0,0,1-.36.05l-0.48-.36a0.26,0.26,0,0,1,0-.36l5.46-7.22a0.26,0.26,0,0,1,.36-0.05l0.41,0.3a0.26,0.26,0,0,1,.05.36Zm-3.78-2.93a0.26,0.26,0,0,1-.36,0l-0.46-.38a0.26,0.26,0,0,1,0-.36l5.76-7a0.26,0.26,0,0,1,.36,0l0.39,0.32a0.26,0.26,0,0,1,0,.36Zm144.75-2.29a0.26,0.26,0,0,1-.36,0L193,204a0.26,0.26,0,0,1,0-.36l0.38-.33a0.26,0.26,0,0,1,.36,0l6,6.8a0.25,0.25,0,0,1,0,.36Zm-148.41-.8a0.25,0.25,0,0,1-.36,0l-0.45-.4a0.25,0.25,0,0,1,0-.36l6.05-6.73a0.26,0.26,0,0,1,.36,0l0.37,0.33a0.26,0.26,0,0,1,0,.36Zm152-2.41a0.26,0.26,0,0,1-.36,0l-6.2-6.6a0.26,0.26,0,0,1,0-.36l0.36-.35a0.26,0.26,0,0,1,.36,0l6.26,6.54a0.26,0.26,0,0,1,0,.36Zm-155.48-.82a0.26,0.26,0,0,1-.36,0l-0.43-.41a0.25,0.25,0,0,1,0-.36l6.33-6.47a0.26,0.26,0,0,1,.36,0L53.59,200a0.26,0.26,0,0,1,0,.36Zm158.89-2.54a0.25,0.25,0,0,1-.36,0L199.39,198a0.26,0.26,0,0,1,0-.36l0.35-.36a0.26,0.26,0,0,1,.36,0l6.53,6.27a0.25,0.25,0,0,1,0,.36Zm-162.27-.84a0.25,0.25,0,0,1-.36,0L43.18,203a0.25,0.25,0,0,1,0-.36l6.6-6.2a0.26,0.26,0,0,1,.36,0l0.35,0.36a0.26,0.26,0,0,1,0,.36Zm165.55-2.66a0.26,0.26,0,0,1-.36,0l-6.73-6.05a0.26,0.26,0,0,1,0-.36l0.34-.38a0.26,0.26,0,0,1,.36,0l6.79,6a0.25,0.25,0,0,1,0,.36ZM40.71,200a0.25,0.25,0,0,1-.36,0L40,199.48a0.25,0.25,0,0,1,0-.36l6.85-5.92a0.26,0.26,0,0,1,.36,0l0.33,0.38a0.26,0.26,0,0,1,0,.36Zm171.9-2.78a0.25,0.25,0,0,1-.36,0l-7-5.77a0.26,0.26,0,0,1,0-.36l0.32-.39a0.26,0.26,0,0,1,.36,0l7,5.7a0.26,0.26,0,0,1,0,.36Zm-175-.88a0.26,0.26,0,0,1-.36,0l-0.37-.47a0.25,0.25,0,0,1,0-.36l7.1-5.61a0.26,0.26,0,0,1,.36,0l0.31,0.39a0.26,0.26,0,0,1,0,.36Zm178-2.9a0.26,0.26,0,0,1-.36,0L208,188a0.26,0.26,0,0,1-.05-0.36l0.3-.41a0.26,0.26,0,0,1,.36-0.05l7.27,5.39a0.25,0.25,0,0,1,.05.36Zm-180.87-.88a0.25,0.25,0,0,1-.36-0.05L34,192a0.25,0.25,0,0,1,.06-0.36l7.33-5.31a0.26,0.26,0,0,1,.36.06l0.29,0.4a0.26,0.26,0,0,1-.05.36Zm183.68-3a0.25,0.25,0,0,1-.35.06l-7.44-5.15a0.26,0.26,0,0,1-.07-0.36l0.28-.42a0.26,0.26,0,0,1,.35-0.07l7.49,5.08a0.26,0.26,0,0,1,.07.35Zm-186.44-.89a0.25,0.25,0,0,1-.35-0.07l-0.33-.49a0.26,0.26,0,0,1,.07-0.35l7.54-5a0.26,0.26,0,0,1,.35.07l0.28,0.42a0.26,0.26,0,0,1-.07.35ZM221,185.51a0.25,0.25,0,0,1-.35.08L213,180.75a0.26,0.26,0,0,1-.08-0.35l0.26-.42a0.26,0.26,0,0,1,.35-0.08l7.7,4.75a0.25,0.25,0,0,1,.08.35Zm-191.67-.89a0.25,0.25,0,0,1-.35-0.08L28.7,184a0.26,0.26,0,0,1,.09-0.35L36.53,179a0.26,0.26,0,0,1,.35.09l0.26,0.43a0.26,0.26,0,0,1-.08.35Zm194.14-3.23a0.25,0.25,0,0,1-.35.09l-7.85-4.5a0.26,0.26,0,0,1-.09-0.35l0.25-.44a0.26,0.26,0,0,1,.35-0.1l7.9,4.43a0.25,0.25,0,0,1,.1.35ZM26.93,180.5a0.25,0.25,0,0,1-.35-0.1l-0.29-.52a0.25,0.25,0,0,1,.1-0.35l7.94-4.34a0.26,0.26,0,0,1,.35.1l0.24,0.44a0.26,0.26,0,0,1-.1.35Zm198.85-3.34a0.26,0.26,0,0,1-.34.11l-8-4.16a0.26,0.26,0,0,1-.11-0.34l0.23-.45a0.26,0.26,0,0,1,.34-0.11l8.08,4.08a0.25,0.25,0,0,1,.11.34Zm-201.09-.88a0.25,0.25,0,0,1-.34-0.11l-0.26-.53a0.26,0.26,0,0,1,.12-0.34l8.12-4a0.26,0.26,0,0,1,.34.12l0.22,0.45a0.26,0.26,0,0,1-.11.34Zm203.2-3.44a0.26,0.26,0,0,1-.34.12l-8.21-3.81a0.26,0.26,0,0,1-.12-0.34l0.21-.46a0.26,0.26,0,0,1,.34-0.13L228,172a0.25,0.25,0,0,1,.13.34ZM22.63,172a0.25,0.25,0,0,1-.34-0.13l-0.24-.54a0.26,0.26,0,0,1,.13-0.34l8.28-3.66a0.26,0.26,0,0,1,.34.13l0.2,0.46a0.26,0.26,0,0,1-.13.34Zm207.18-3.55a0.26,0.26,0,0,1-.33.14l-8.36-3.46a0.26,0.26,0,0,1-.14-0.33l0.19-.47a0.26,0.26,0,0,1,.33-0.14l8.4,3.38a0.25,0.25,0,0,1,.14.33ZM20.75,167.6a0.25,0.25,0,0,1-.33-0.14l-0.22-.56a0.25,0.25,0,0,1,.14-0.33l8.43-3.3a0.26,0.26,0,0,1,.33.14l0.19,0.47a0.26,0.26,0,0,1-.14.33ZM231.55,164a0.25,0.25,0,0,1-.33.15l-8.5-3.1a0.26,0.26,0,0,1-.15-0.33l0.17-.48a0.26,0.26,0,0,1,.33-0.16l8.53,3a0.26,0.26,0,0,1,.15.33Zm-212.49-.83a0.25,0.25,0,0,1-.32-0.16l-0.2-.56a0.25,0.25,0,0,1,.16-0.32l8.56-2.94a0.26,0.26,0,0,1,.32.16l0.17,0.48a0.26,0.26,0,0,1-.16.33Zm214-3.73a0.25,0.25,0,0,1-.32.17l-8.63-2.73a0.26,0.26,0,0,1-.17-0.32l0.15-.48a0.26,0.26,0,0,1,.32-0.17l8.66,2.64a0.25,0.25,0,0,1,.17.32Zm-215.53-.81a0.25,0.25,0,0,1-.32-0.17l-0.17-.57a0.25,0.25,0,0,1,.17-0.32L25.92,155a0.26,0.26,0,0,1,.32.17l0.15,0.48a0.26,0.26,0,0,1-.17.32Zm216.87-3.8a0.25,0.25,0,0,1-.31.18l-8.74-2.36a0.26,0.26,0,0,1-.18-0.31l0.13-.49a0.26,0.26,0,0,1,.31-0.18l8.76,2.28a0.25,0.25,0,0,1,.18.31ZM16.26,154a0.25,0.25,0,0,1-.31-0.18l-0.15-.58a0.26,0.26,0,0,1,.18-0.31l8.78-2.2a0.26,0.26,0,0,1,.31.19l0.12,0.49a0.26,0.26,0,0,1-.18.31Zm219.31-3.85a0.25,0.25,0,0,1-.3.19l-8.83-2a0.26,0.26,0,0,1-.19-0.3l0.11-.49a0.26,0.26,0,0,1,.3-0.2l8.85,1.9a0.26,0.26,0,0,1,.2.3Zm-220.42-.81a0.25,0.25,0,0,1-.3-0.2l-0.12-.58a0.25,0.25,0,0,1,.2-0.3l8.87-1.82a0.26,0.26,0,0,1,.3.2l0.1,0.49a0.26,0.26,0,0,1-.2.3Zm221.36-3.9a0.25,0.25,0,0,1-.3.21L227.31,144a0.26,0.26,0,0,1-.21-0.3l0.09-.5a0.26,0.26,0,0,1,.29-0.21l8.92,1.52a0.25,0.25,0,0,1,.21.29Zm-222.27-.8a0.25,0.25,0,0,1-.29-0.21l-0.1-.59a0.26,0.26,0,0,1,.21-0.29L23,142.1a0.26,0.26,0,0,1,.29.21l0.08,0.5a0.26,0.26,0,0,1-.21.29Zm223-3.94a0.26,0.26,0,0,1-.29.22l-9-1.23a0.26,0.26,0,0,1-.22-0.29l0.07-.5a0.26,0.26,0,0,1,.29-0.22l9,1.14a0.25,0.25,0,0,1,.22.28ZM13.54,139.9a0.25,0.25,0,0,1-.28-0.22l-0.07-.59a0.25,0.25,0,0,1,.22-0.28l9-1.06a0.26,0.26,0,0,1,.28.22l0.06,0.5a0.26,0.26,0,0,1-.22.29Zm224.25-4a0.26,0.26,0,0,1-.28.23l-9-.84a0.26,0.26,0,0,1-.23-0.28l0-.5a0.26,0.26,0,0,1,.28-0.23l9,0.76a0.25,0.25,0,0,1,.23.28ZM13,135.14a0.26,0.26,0,0,1-.27-0.23l0-.59a0.25,0.25,0,0,1,.23-0.27l9-.68a0.26,0.26,0,0,1,.27.24l0,0.5a0.26,0.26,0,0,1-.23.28Zm225.09-4a0.25,0.25,0,0,1-.27.24l-9-.47a0.26,0.26,0,0,1-.24-0.27l0-.5a0.26,0.26,0,0,1,.27-0.24l9,0.38a0.25,0.25,0,0,1,.24.27Zm0.13-4.66a0.25,0.25,0,0,1-.26.25l-9-.27a0.26,0.26,0,0,1-.25-0.26v-0.5a0.26,0.26,0,0,1,.26-0.25l9,0.18a0.25,0.25,0,0,1,.25.26v0.6ZM12.73,130.37a0.26,0.26,0,0,1-.26-0.24l0-.59a0.25,0.25,0,0,1,.25-0.26l9-.3a0.26,0.26,0,0,1,.26.25l0,0.5a0.26,0.26,0,0,1-.24.27Zm9.2-4.82a0.43,0.43,0,0,1-.25,0H12.63a0.43,0.43,0,0,1-.25,0v-0.81a0.25,0.25,0,0,1,.26-0.25l9.05,0.08a0.26,0.26,0,0,1,.25.26v0.72Zm207-3.59a0.26,0.26,0,0,1-.26-0.25l0-.5a0.26,0.26,0,0,1,.24-0.27l9-.39a0.25,0.25,0,0,1,.27.24l0,0.59a0.26,0.26,0,0,1-.25.26ZM22,120.95a0.26,0.26,0,0,1-.27.24l-9-.37a0.25,0.25,0,0,1-.24-0.27l0-.59a0.26,0.26,0,0,1,.27-0.24l9,0.45a0.26,0.26,0,0,1,.24.27Zm206.62-3.37a0.26,0.26,0,0,1-.27-0.23l0-.5a0.26,0.26,0,0,1,.23-0.28l9-.77a0.25,0.25,0,0,1,.28.23l0,0.59a0.25,0.25,0,0,1-.23.27Zm-206.34-1a0.26,0.26,0,0,1-.28.23L13,116a0.25,0.25,0,0,1-.23-0.28l0.05-.6a0.25,0.25,0,0,1,.28-0.23l9,0.84a0.26,0.26,0,0,1,.23.28Zm205.92-3.37a0.26,0.26,0,0,1-.28-0.22l-0.06-.5a0.26,0.26,0,0,1,.22-0.29l9-1.15a0.25,0.25,0,0,1,.28.22l0.07,0.59a0.25,0.25,0,0,1-.22.28Zm-205.45-1a0.26,0.26,0,0,1-.29.22l-9-1.13A0.25,0.25,0,0,1,13.3,111l0.08-.59a0.25,0.25,0,0,1,.29-0.22l9,1.22a0.26,0.26,0,0,1,.22.29Zm204.84-3.36a0.26,0.26,0,0,1-.29-0.21l-0.08-.49a0.26,0.26,0,0,1,.21-0.29l8.92-1.53a0.25,0.25,0,0,1,.29.21l0.1,0.59a0.25,0.25,0,0,1-.21.29Zm-0.79-4.32a0.26,0.26,0,0,1-.3-0.2l-0.1-.49a0.26,0.26,0,0,1,.2-0.3l8.85-1.91a0.25,0.25,0,0,1,.3.2l0.12,0.58a0.25,0.25,0,0,1-.2.3Zm-1-4.29a0.26,0.26,0,0,1-.31-0.19l-0.13-.49a0.26,0.26,0,0,1,.18-0.31L234.36,97a0.25,0.25,0,0,1,.31.18l0.15,0.58a0.26,0.26,0,0,1-.18.31ZM224.69,96a0.26,0.26,0,0,1-.32-0.17l-0.15-.48A0.26,0.26,0,0,1,224.4,95L233,92.35a0.25,0.25,0,0,1,.32.17l0.17,0.57a0.25,0.25,0,0,1-.17.32Zm-1.34-4.19a0.26,0.26,0,0,1-.32-0.16l-0.17-.48a0.26,0.26,0,0,1,.16-0.33l8.53-3a0.25,0.25,0,0,1,.32.16l0.2,0.56a0.25,0.25,0,0,1-.16.32Zm-1.52-4.13a0.26,0.26,0,0,1-.33-0.14l-0.19-.47a0.26,0.26,0,0,1,.14-0.33l8.39-3.39a0.25,0.25,0,0,1,.33.14L230.4,84a0.25,0.25,0,0,1-.14.33Zm-1.69-4a0.26,0.26,0,0,1-.34-0.13L219.6,83a0.26,0.26,0,0,1,.13-0.34L228,79a0.25,0.25,0,0,1,.34.13l0.24,0.54a0.25,0.25,0,0,1-.13.34Zm-1.86-4a0.26,0.26,0,0,1-.34-0.12l-0.22-.45a0.26,0.26,0,0,1,.11-0.34l8.07-4.09a0.25,0.25,0,0,1,.34.11l0.27,0.53a0.25,0.25,0,0,1-.12.34Zm-2-3.89a0.26,0.26,0,0,1-.35-0.1l-0.24-.44a0.26,0.26,0,0,1,.1-0.35l7.89-4.43a0.25,0.25,0,0,1,.35.1l0.29,0.52a0.26,0.26,0,0,1-.1.35ZM214.06,72a0.26,0.26,0,0,1-.35-0.09l-0.26-.43a0.26,0.26,0,0,1,.08-0.35l7.7-4.76a0.26,0.26,0,0,1,.35.08l0.31,0.51a0.26,0.26,0,0,1-.09.35Zm-2.35-3.71a0.26,0.26,0,0,1-.35-0.07l-0.28-.42a0.26,0.26,0,0,1,.07-0.35l7.49-5.08a0.25,0.25,0,0,1,.35.07l0.33,0.49a0.25,0.25,0,0,1-.07.35Zm-2.51-3.6a0.26,0.26,0,0,1-.36-0.06l-0.3-.41a0.26,0.26,0,0,1,.05-0.36l7.27-5.39a0.25,0.25,0,0,1,.36.05L216.58,59a0.26,0.26,0,0,1-.06.36Zm-2.66-3.5a0.26,0.26,0,0,1-.36,0l-0.31-.39a0.26,0.26,0,0,1,0-.36l7-5.7a0.25,0.25,0,0,1,.36,0l0.37,0.46a0.25,0.25,0,0,1,0,.36Zm-2.81-3.39a0.26,0.26,0,0,1-.36,0L203,57.35a0.26,0.26,0,0,1,0-.36l6.79-6a0.25,0.25,0,0,1,.36,0l0.39,0.45a0.26,0.26,0,0,1,0,.36Zm-2.95-3.26a0.26,0.26,0,0,1-.36,0l-0.35-.36a0.26,0.26,0,0,1,0-.36l6.53-6.27a0.25,0.25,0,0,1,.36,0l0.41,0.43a0.25,0.25,0,0,1,0,.36Zm-3.08-3.14a0.26,0.26,0,0,1-.36,0L197,51a0.26,0.26,0,0,1,0-.36l6.26-6.54a0.25,0.25,0,0,1,.36,0L204,44.51a0.26,0.26,0,0,1,0,.36Zm-3.21-3a0.26,0.26,0,0,1-.36,0L193.76,48a0.26,0.26,0,0,1,0-.36l6-6.8a0.26,0.26,0,0,1,.36,0l0.44,0.39a0.25,0.25,0,0,1,0,.36Zm-3.34-2.87a0.26,0.26,0,0,1-.36,0l-0.39-.32a0.26,0.26,0,0,1,0-.36l5.69-7a0.26,0.26,0,0,1,.36,0l0.46,0.37a0.26,0.26,0,0,1,0,.36Zm-3.46-2.73a0.26,0.26,0,0,1-.36.05l-0.4-.3a0.26,0.26,0,0,1-.05-0.36l5.38-7.28a0.25,0.25,0,0,1,.36-0.05l0.48,0.36a0.25,0.25,0,0,1,.05.36Zm-3.57-2.58a0.26,0.26,0,0,1-.36.07l-0.42-.28a0.26,0.26,0,0,1-.07-0.35l5.07-7.5a0.25,0.25,0,0,1,.35-0.07l0.49,0.34a0.25,0.25,0,0,1,.07.35Zm-3.67-2.42a0.26,0.26,0,0,1-.35.08l-0.43-.27a0.26,0.26,0,0,1-.08-0.35l4.75-7.7a0.26,0.26,0,0,1,.35-0.08l0.5,0.31a0.26,0.26,0,0,1,.08.35Zm-3.78-2.27a0.26,0.26,0,0,1-.35.1l-0.44-.25a0.26,0.26,0,0,1-.1-0.35l4.41-7.9a0.25,0.25,0,0,1,.35-0.1l0.52,0.3a0.26,0.26,0,0,1,.1.35Zm-3.87-2.11a0.26,0.26,0,0,1-.34.11L172,33.25a0.26,0.26,0,0,1-.11-0.34L176,24.82a0.26,0.26,0,0,1,.34-0.11L176.86,25a0.25,0.25,0,0,1,.11.34Zm-4-1.94a0.26,0.26,0,0,1-.34.12l-0.46-.21a0.26,0.26,0,0,1-.13-0.34l3.73-8.25a0.25,0.25,0,0,1,.34-0.13l0.54,0.25a0.25,0.25,0,0,1,.12.34Zm-4-1.77a0.26,0.26,0,0,1-.33.14L164,29.61a0.26,0.26,0,0,1-.14-0.33l3.37-8.4a0.25,0.25,0,0,1,.33-0.14L168.13,21a0.25,0.25,0,0,1,.14.33Zm-4.11-1.59a0.26,0.26,0,0,1-.33.15L159.9,28a0.26,0.26,0,0,1-.16-0.33l3-8.54a0.25,0.25,0,0,1,.33-0.16l0.56,0.2a0.25,0.25,0,0,1,.15.33Zm-4.18-1.42a0.26,0.26,0,0,1-.32.17l-0.49-.15a0.26,0.26,0,0,1-.17-0.32l2.64-8.66a0.25,0.25,0,0,1,.32-0.17l0.57,0.18a0.26,0.26,0,0,1,.17.32Zm-4.23-1.23a0.26,0.26,0,0,1-.31.18l-0.49-.13a0.26,0.26,0,0,1-.18-0.31l2.27-8.76a0.26,0.26,0,0,1,.31-0.18l0.57,0.15a0.26,0.26,0,0,1,.18.31Z" transform="translate(-12.37 -11.03)"/><path class="cls-1" d="M154.7,53.29a62.92,62.92,0,1,0,62.92,62.92A63,63,0,0,0,154.7,53.29Zm54.21,62.92A54.21,54.21,0,1,1,154.7,62,54.28,54.28,0,0,1,208.91,116.21Z" transform="translate(-12.37 -11.03)"/><path class="cls-1" d="M121.87,127.65c-6-10.68-15.23-18.11-27.5-22.08a55.12,55.12,0,0,0-17.26-2.72A63.22,63.22,0,0,0,67,103.7c-1.26.27-2.5,0.56-3.72,0.85L74.51,75.13h22A0.29,0.29,0,0,0,96.74,75l4.61-7a0.29,0.29,0,0,0-.24-0.45H68.21a0.29,0.29,0,0,0-.29.29V70.3L53,109.44a0.29,0.29,0,0,0,.09.33l4.75,3.95a0.29,0.29,0,0,0,.26.06l1.63-.42a74.92,74.92,0,0,1,18-2.44,46.14,46.14,0,0,1,14.39,2.15c10.08,3.36,17.69,9.51,22.62,18.26a34.09,34.09,0,0,1,4.6,16.79,36.4,36.4,0,0,1-20.43,32.36,39,39,0,0,1-17.61,4.3,41.25,41.25,0,0,1-11.47-1.69c-8.63-2.5-15.31-7-19.86-13.42a0.29,0.29,0,0,0-.16-0.11,42.69,42.69,0,0,1-4-6.86A39.39,39.39,0,0,1,42,148.61a0.29,0.29,0,0,0-.29-0.27H34.28a0.29,0.29,0,0,0-.29.31,47.17,47.17,0,0,0,4.52,17.16,52.05,52.05,0,0,0,5.69,9.52,0.29,0.29,0,0,0,.06.18c5.54,7.18,13.31,12.26,23.09,15.1a50.71,50.71,0,0,0,14.15,2.1,46.89,46.89,0,0,0,21.29-5.21c11.25-5.73,18.85-14.52,22.6-26.14a42.88,42.88,0,0,0,2.13-13.15A41.59,41.59,0,0,0,121.87,127.65Z" transform="translate(-12.37 -11.03)"/><path class="cls-1" d="M27.85,94.24l-5.64-1.65-1.9,6.48L26,100.72l-0.51,1.75L12.75,98.76,13.27,97l5.42,1.59,1.9-6.48-5.42-1.59,0.51-1.75,12.68,3.72Z" transform="translate(-12.37 -11.03)"/><path class="cls-1" d="M22.7,88.56A6.55,6.55,0,0,1,19,79.8a5.62,5.62,0,0,1,6.17-3.66L25,77.93a3.92,3.92,0,0,0-4.5,2.54c-1,2.21-.26,5,2.9,6.38s5.7,0,6.66-2.23a4.2,4.2,0,0,0-1.23-5.13l1.19-1.25a5.77,5.77,0,0,1,1.57,7A6.5,6.5,0,0,1,22.7,88.56Z" transform="translate(-12.37 -11.03)"/><path class="cls-1" d="M35.33,69.85l-3,5L34.8,78l-1,1.68L25.12,68.39l1.08-1.81L40.25,68.8l-1,1.7Zm-4.12,3.61,2.32-3.91-6.27-1.06Z" transform="translate(-12.37 -11.03)"/><path class="cls-1" d="M49,57.94l-4.49-3.79-4.35,5.16,4.49,3.79-1.18,1.4L33.33,56l1.18-1.4,4.32,3.64,4.35-5.16-4.32-3.64L40,48l10.1,8.53Z" transform="translate(-12.37 -11.03)"/><path class="cls-1" d="M52,54.68l-9.09-9.6,5.84-5.52,1.17,1.23-4.51,4.27,2.79,3,4.09-3.87,1.18,1.25L49.4,49.26l2.78,2.94,4.51-4.27,1.17,1.23Z" transform="translate(-12.37 -11.03)"/><path class="cls-1" d="M63.82,39.86l-4.69,3.51,1.09,3.79-1.57,1.17L55,34.6l1.69-1.26,12.13,7.44L67.19,42Zm-5.18,1.76,3.64-2.73L56.9,35.52Z" transform="translate(-12.37 -11.03)"/><path class="cls-1" d="M70.16,40L63.45,28.66,65,27.73l5.84,9.91,5.38-3.17,0.87,1.48Z" transform="translate(-12.37 -11.03)"/><path class="cls-1" d="M76.14,23.67l5,10.37-1.65.8-5-10.37-4,1.92-0.74-1.53,9.6-4.65,0.74,1.53Z" transform="translate(-12.37 -11.03)"/><path class="cls-1" d="M94.34,28.85L92.4,23.3,86,25.52,88,31.07l-1.73.6L81.89,19.19l1.73-.6,1.86,5.34,6.37-2.22L90,16.37l1.73-.6,4.35,12.49Z" transform="translate(-12.37 -11.03)"/><path class="cls-1" d="M96,21.36a6.55,6.55,0,0,1,5-8.1,5.62,5.62,0,0,1,6.57,2.89l-1.54.94a3.92,3.92,0,0,0-4.68-2.19c-2.35.5-4.23,2.69-3.51,6.07s3.33,4.63,5.69,4.13a4.2,4.2,0,0,0,3.46-4l1.71,0.25a5.77,5.77,0,0,1-4.82,5.38A6.5,6.5,0,0,1,96,21.36Z" transform="translate(-12.37 -11.03)"/><path class="cls-1" d="M118.53,20.77l-5.83.49-1.08,3.8-2,.17,4.12-13.61,2.1-.18,6.35,12.73-2,.17Zm-5.33-1.25,4.53-.38-2.78-5.71Z" transform="translate(-12.37 -11.03)"/><path class="cls-1" d="M127.77,19l-2-.06-0.17,5.4-1.84-.06L124.2,11l5,0.15a3.83,3.83,0,0,1,3.92,4.06,3.7,3.7,0,0,1-3.32,3.65l3,5.63-2.12-.07Zm0.87-1.61a2.28,2.28,0,1,0,.14-4.53l-2.8-.09-0.14,4.53Z" transform="translate(-12.37 -11.03)"/><path class="cls-1" d="M134.62,24.74l1.74-13.1,8,1.06-0.22,1.68-6.15-.82-0.54,4L143,18.33,142.77,20l-5.58-.74-0.53,4,6.15,0.82-0.22,1.68Z" transform="translate(-12.37 -11.03)"/><path class="cls-1" d="M109,237l1.24-8.49-2.92-.43,0.19-1.28A3,3,0,0,0,111,225l1.6,0.23-1.76,12Z" transform="translate(-12.37 -11.03)"/><path class="cls-1" d="M114.5,235.77a4.71,4.71,0,0,0,2.17.72c2.94,0.19,4.26-1.67,4.48-4a3.43,3.43,0,0,1-3.24,1.36,4,4,0,0,1-3.94-4.37,4.29,4.29,0,0,1,4.74-3.91c2.38,0.15,4.61,2,4.37,5.88-0.28,4.46-2.43,7-6.52,6.73a5.89,5.89,0,0,1-2.76-.89Zm4.12-8.63a2.53,2.53,0,0,0-2.78,2.38,2.5,2.5,0,0,0,2.46,2.73A2.56,2.56,0,1,0,118.62,227.14Z" transform="translate(-12.37 -11.03)"/><path class="cls-1" d="M132.79,227.72a4.56,4.56,0,0,0-2.19-.45c-2.53.09-4.06,2-4.12,4.5a3.66,3.66,0,0,1,3.15-1.69,3.9,3.9,0,0,1,4.31,4,4.2,4.2,0,0,1-4.35,4.31c-2.33.08-4.8-1.44-4.95-5.46-0.16-4.52,2.47-7.19,6-7.31a4.77,4.77,0,0,1,2.65.58Zm-3.24,9.07a2.56,2.56,0,1,0-2.72-2.46A2.54,2.54,0,0,0,129.54,236.79Z" transform="translate(-12.37 -11.03)"/><path class="cls-1" d="M136.11,234.54a3.18,3.18,0,0,1,1.87-3.29,3.06,3.06,0,0,1-2.36-2.55c-0.27-2,1.28-3.59,3.59-3.91s4.24,0.81,4.52,2.78a3.07,3.07,0,0,1-1.58,3.1,3.16,3.16,0,0,1,2.7,2.66c0.27,1.93-1.12,3.68-3.89,4.06S136.38,236.47,136.11,234.54Zm5.81-6.62a2.28,2.28,0,0,0-4.46.62A2.27,2.27,0,0,0,141.92,227.92Zm1.07,5.52c-0.16-1.15-1.22-1.93-2.81-1.71s-2.4,1.26-2.24,2.41,1.19,1.9,2.81,1.68S143.14,234.57,143,233.43Z" transform="translate(-12.37 -11.03)"/><path class="cls-1" d="M148.09,231.2l-0.36-1.5,4.95-1.18L153,230Z" transform="translate(-12.37 -11.03)"/><path class="cls-1" d="M153.86,226.32a4.42,4.42,0,0,1-.17-0.46,3.93,3.93,0,0,1,2.77-5.05c2.48-.81,4.44.35,5.07,2.27a4.43,4.43,0,0,1-1,4.28l-1.81,2.21a3,3,0,0,0-.88,2.08l5.94-1.94,0.53,1.62L156.2,234a5.48,5.48,0,0,1,1.24-5.5l1.52-1.88a3,3,0,0,0,.8-2.93,2.1,2.1,0,0,0-2.84-1.32,2.25,2.25,0,0,0-1.46,3.1c0.05,0.16.13,0.33,0.2,0.51Z" transform="translate(-12.37 -11.03)"/><path class="cls-1" d="M163.16,220.53a4.55,4.55,0,0,1,6.83-3,9.48,9.48,0,0,1,3.57,8.07,4.55,4.55,0,0,1-6.83,3A9.48,9.48,0,0,1,163.16,220.53Zm5,6.91a2.77,2.77,0,0,0,3.54-1.56c0.36-1,.14-2.34-0.61-4s-1.59-2.76-2.57-3.17a2.76,2.76,0,0,0-3.54,1.56c-0.36,1-.14,2.34.61,4S167.2,227,168.18,227.44Z" transform="translate(-12.37 -11.03)"/><path class="cls-1" d="M179.58,224.28l-4.13-7.52-2.58,1.42L172.25,217a3,3,0,0,0,1.65-3.52l1.42-.78,5.85,10.66Z" transform="translate(-12.37 -11.03)"/><path class="cls-1" d="M181.85,219.37a3.18,3.18,0,0,1,.27-3.78,3.06,3.06,0,0,1-3.23-1.29c-1.1-1.66-.39-3.79,1.55-5.07s4.18-1.09,5.28.57a3.07,3.07,0,0,1-.09,3.48,3.16,3.16,0,0,1,3.58,1.23c1.07,1.63.58,3.8-1.76,5.34S182.93,221,181.85,219.37Zm2.39-8.48a2.28,2.28,0,0,0-3.76,2.48A2.27,2.27,0,0,0,184.24,210.89Zm3.34,4.52c-0.64-1-1.93-1.22-3.28-.33s-1.62,2.17-1,3.14,1.89,1.2,3.26.3S188.21,216.36,187.58,215.41Z" transform="translate(-12.37 -11.03)"/><path class="cls-1" d="M125.32,217.6a91.51,91.51,0,0,1-52.67-16.54,0.22,0.22,0,0,1-.05-0.31l0.56-.8a0.22,0.22,0,0,1,.31-0.05,90.71,90.71,0,0,0,127.88-25,0.22,0.22,0,0,1,.3-0.07l0.82,0.53a0.22,0.22,0,0,1,.07.31A91.84,91.84,0,0,1,125.32,217.6Z" transform="translate(-12.37 -11.03)"/><path class="cls-1" d="M34,136.12a0.17,0.17,0,0,1-.18-0.15,93.48,93.48,0,0,1-.59-10.46A92.12,92.12,0,0,1,169,44.43a0.17,0.17,0,0,1,.07.23l-0.52,1a0.16,0.16,0,0,1-.22.07,90.69,90.69,0,0,0-133.7,79.84,92.07,92.07,0,0,0,.58,10.3,0.16,0.16,0,0,1-.14.18Z" transform="translate(-12.37 -11.03)"/><path class="cls-1" d="M140.35,114.73l0.71,4.91h0.39l1.29-2.3a13,13,0,0,0,1.76-4.18,1.74,1.74,0,0,1-1-1.61,1.37,1.37,0,0,1,1.34-1.47,1.5,1.5,0,0,1,1.42,1.76c0,1-.88,3.13-3.32,6.92-3.52,5.47-5.3,7.62-7.33,7.62a1.66,1.66,0,0,1-1.81-1.66,1.4,1.4,0,0,1,1.34-1.47,1.32,1.32,0,0,1,1.37,1.42,3,3,0,0,1,0,.46,8.57,8.57,0,0,0,3.1-3.1l-0.86-4.86L138,112.53c-0.17-.81-0.39-1.08-2.05-1.12v-0.86l3.86-.34Z" transform="translate(-12.37 -11.03)"/><path class="cls-1" d="M149.69,116.46c0,0.32,0,.66,0,1,0,1.91.68,3.08,2.32,3.08a4.27,4.27,0,0,0,3.32-1.93l0.68,0.64a5.49,5.49,0,0,1-4.5,2.47,3.82,3.82,0,0,1-4.06-4.1c0-3.62,2.81-7.5,6.5-7.5,2.05,0,3.2,1,3.2,2.47C157.12,114.44,154.87,116.39,149.69,116.46Zm0.12-.81c4.37-.24,5.25-1.73,5.25-3.35a1.17,1.17,0,0,0-1.34-1.32C152,111,150.35,113.09,149.82,115.66Z" transform="translate(-12.37 -11.03)"/><path class="cls-1" d="M167.44,118.64a4.23,4.23,0,0,0-.2,1.05c0,0.76.54,1,2.08,1v0.78a6.51,6.51,0,0,1-1.83.24c-1.32,0-2-.29-2-1.39a6.6,6.6,0,0,1,.1-1l-0.1,0c-1.22,1.76-2.32,2.39-3.76,2.39-2,0-3.25-1.37-3.25-3.79,0-3.49,3.15-7.82,6.6-7.82a2.45,2.45,0,0,1,2.47,1.51l0.39-1.22,2.2-.27-1.42,4Zm-6.69-1c0,1.81.61,2.69,1.91,2.69,1.05,0,2.13-1,3-2.61l1.39-4.62c-0.15-1.44-.93-2.17-1.91-2.17C162.51,111,160.75,115.49,160.75,117.69Z" transform="translate(-12.37 -11.03)"/><path class="cls-1" d="M181.54,111.67a1.51,1.51,0,0,1-1.44,1.74,1.1,1.1,0,0,1-1.25-1.17,1.73,1.73,0,0,1,.2-0.73,5.41,5.41,0,0,0-3.18,2.44L174,121.5h-2.44l1.34-4,1.42-5.11c0.22-.86,0-1.1-1.54-1.2v-0.86l4.13-.15-0.56,2,0.1,0.1c1.12-1.3,2.27-2.2,3.54-2.2A1.47,1.47,0,0,1,181.54,111.67Z" transform="translate(-12.37 -11.03)"/><path class="cls-1" d="M181.34,119.25a1.37,1.37,0,0,1,1.32-1.49,1.15,1.15,0,0,1,1.22,1.2,1.41,1.41,0,0,1-.64,1.17,2.59,2.59,0,0,0,2,.71c1.42,0,2.25-.73,2.25-1.88,0-1-.44-1.49-2.15-2.44-1.54-.86-2.27-1.71-2.27-2.91,0-1.88,1.42-3.52,4-3.52,1.93,0,3.3,1.12,3.3,2.35a1.27,1.27,0,0,1-1.25,1.42,1.14,1.14,0,0,1-1.22-1.1,1.46,1.46,0,0,1,.61-1.2,2,2,0,0,0-1.56-.61,1.76,1.76,0,0,0-2,1.78c0,0.9.34,1.34,2,2.27s2.37,1.76,2.37,3.05c0,1.76-1.27,3.64-4.15,3.64C183,121.69,181.34,120.67,181.34,119.25Z" transform="translate(-12.37 -11.03)"/><circle class="cls-1" cx="6.24" cy="95.23" r="0.83"/><circle class="cls-1" cx="135.42" cy="8.48" r="0.83"/><circle class="cls-1" cx="180.39" cy="199.9" r="0.83"/><circle class="cls-1" cx="90.95" cy="220.16" r="0.83"/></svg>