<svg id="Layer_2" data-name="Layer 2" xmlns="http://www.w3.org/2000/svg" viewBox="0 0 86.51 169.46"><defs><style>.cls-1{fill:#e15829;}.cls-2{fill:#fff;}</style></defs><title>bloodstream-percentage</title><polygon class="cls-1" points="86.51 121.46 86.51 0 0 0 0 121.46 0 121.46 21.6 145.46 43.25 169.46 64.9 145.46 86.51 121.46"/><path class="cls-2" d="M49.89,53.61H45.33V63.83H41V53.61H26.64V50.15l15.75-19.2h2.94V50.67h4.56v2.94ZM41,50.67V35.95L28.86,50.67H41Z" transform="translate(-16.92 -9.71)"/><path class="cls-2" d="M74.22,53.61H69.66V63.83H65.35V53.61H51V50.15l15.75-19.2h2.94V50.67h4.56v2.94Zm-8.87-2.94V35.95L53.19,50.67H65.35Z" transform="translate(-16.92 -9.71)"/><path class="cls-2" d="M84.52,36.23a4.89,4.89,0,0,1-1.24,3.58,4.68,4.68,0,0,1-6.41,0,4.91,4.91,0,0,1-1.24-3.58,5,5,0,0,1,1.21-3.51,4.58,4.58,0,0,1,6.46,0A5,5,0,0,1,84.52,36.23Zm9.31-4.46L78.39,50.41h-1.8L92,31.76h1.83ZM82.31,36.23a6.1,6.1,0,0,0-.56-2.8,1.83,1.83,0,0,0-3.35,0,6.15,6.15,0,0,0-.56,2.8A6.07,6.07,0,0,0,78.41,39a1.83,1.83,0,0,0,3.33,0A6,6,0,0,0,82.31,36.23ZM94.7,46a4.89,4.89,0,0,1-1.24,3.57,4.68,4.68,0,0,1-6.41,0A4.91,4.91,0,0,1,85.81,46,5,5,0,0,1,87,42.48a4.57,4.57,0,0,1,6.46,0A5,5,0,0,1,94.7,46Zm-2.21,0a6.08,6.08,0,0,0-.56-2.8,1.83,1.83,0,0,0-3.35,0A6.15,6.15,0,0,0,88,46a6.07,6.07,0,0,0,.56,2.82,1.83,1.83,0,0,0,3.33,0A6,6,0,0,0,92.48,46Z" transform="translate(-16.92 -9.71)"/><path class="cls-2" d="M37.1,79.4V78.68a1.77,1.77,0,0,1-1.6.85,2.24,2.24,0,0,1-1.25-.38,2.47,2.47,0,0,1-.89-1,3.62,3.62,0,0,1-.31-1.55A4.06,4.06,0,0,1,33.33,75a2.25,2.25,0,0,1,.85-1.07,2.29,2.29,0,0,1,1.27-.37,1.9,1.9,0,0,1,1.57.78V71.53h1V79.4H37.1ZM34,76.55a2.47,2.47,0,0,0,.46,1.64,1.39,1.39,0,0,0,1.09.54,1.37,1.37,0,0,0,1.08-.52,2.39,2.39,0,0,0,.44-1.58,2.68,2.68,0,0,0-.45-1.72,1.39,1.39,0,0,0-1.11-.55,1.34,1.34,0,0,0-1.08.53A2.6,2.6,0,0,0,34,76.55Z" transform="translate(-16.92 -9.71)"/><path class="cls-2" d="M43.42,77.56l1,0.12A2.44,2.44,0,0,1,43.55,79a3,3,0,0,1-3.62-.29,3,3,0,0,1-.73-2.16,3.15,3.15,0,0,1,.74-2.23,2.51,2.51,0,0,1,1.92-.79,2.44,2.44,0,0,1,1.87.78,3.09,3.09,0,0,1,.73,2.19c0,0.06,0,.14,0,0.26H40.19a2.19,2.19,0,0,0,.53,1.44,1.58,1.58,0,0,0,1.19.5,1.47,1.47,0,0,0,.91-0.28A1.85,1.85,0,0,0,43.42,77.56ZM40.25,76h3.19a1.93,1.93,0,0,0-.37-1.08,1.48,1.48,0,0,0-1.2-.56,1.53,1.53,0,0,0-1.12.45A1.77,1.77,0,0,0,40.25,76Z" transform="translate(-16.92 -9.71)"/><path class="cls-2" d="M49.36,77.31l1,0.12a2.47,2.47,0,0,1-.8,1.54,2.33,2.33,0,0,1-1.58.56,2.45,2.45,0,0,1-1.88-.77,3.1,3.1,0,0,1-.71-2.19A4,4,0,0,1,45.65,75a2.13,2.13,0,0,1,.93-1,2.76,2.76,0,0,1,1.36-.35,2.36,2.36,0,0,1,1.52.47,2.16,2.16,0,0,1,.76,1.33l-0.94.15a1.56,1.56,0,0,0-.48-0.87A1.23,1.23,0,0,0,48,74.36a1.5,1.5,0,0,0-1.19.52,2.49,2.49,0,0,0-.46,1.66,2.57,2.57,0,0,0,.44,1.67,1.44,1.44,0,0,0,1.15.52,1.35,1.35,0,0,0,1-.35A1.73,1.73,0,0,0,49.36,77.31Z" transform="translate(-16.92 -9.71)"/><path class="cls-2" d="M51.12,79.4V73.7H52v0.86a2.37,2.37,0,0,1,.62-0.8,1.07,1.07,0,0,1,.62-0.19,1.88,1.88,0,0,1,1,.31l-0.33.9a1.39,1.39,0,0,0-.71-0.21,0.92,0.92,0,0,0-.57.19,1,1,0,0,0-.36.53,3.77,3.77,0,0,0-.16,1.13v3h-1Z" transform="translate(-16.92 -9.71)"/><path class="cls-2" d="M58.7,77.56l1,0.12A2.44,2.44,0,0,1,58.83,79a3,3,0,0,1-3.62-.29,3,3,0,0,1-.73-2.16,3.15,3.15,0,0,1,.74-2.23,2.51,2.51,0,0,1,1.92-.79,2.44,2.44,0,0,1,1.87.78,3.09,3.09,0,0,1,.73,2.19c0,0.06,0,.14,0,0.26H55.47A2.19,2.19,0,0,0,56,78.24a1.58,1.58,0,0,0,1.19.5,1.47,1.47,0,0,0,.91-0.28A1.85,1.85,0,0,0,58.7,77.56ZM55.53,76h3.19a1.93,1.93,0,0,0-.37-1.08,1.48,1.48,0,0,0-1.2-.56,1.53,1.53,0,0,0-1.12.45A1.77,1.77,0,0,0,55.53,76Z" transform="translate(-16.92 -9.71)"/><path class="cls-2" d="M64.64,78.7a3.64,3.64,0,0,1-1,.64,3,3,0,0,1-1.07.19,2.08,2.08,0,0,1-1.45-.46,1.52,1.52,0,0,1-.5-1.17,1.59,1.59,0,0,1,.69-1.32,2.37,2.37,0,0,1,.7-0.32,7.05,7.05,0,0,1,.86-0.14,8.83,8.83,0,0,0,1.72-.33c0-.13,0-0.22,0-0.25a1.06,1.06,0,0,0-.27-0.83,1.61,1.61,0,0,0-1.1-.33,1.71,1.71,0,0,0-1,.24,1.46,1.46,0,0,0-.48.85l-0.95-.13a2.34,2.34,0,0,1,.42-1A1.86,1.86,0,0,1,62,73.77a3.83,3.83,0,0,1,1.29-.2,3.44,3.44,0,0,1,1.19.17,1.56,1.56,0,0,1,.67.43,1.52,1.52,0,0,1,.3.66,5.44,5.44,0,0,1,0,.89V77a13.67,13.67,0,0,0,.06,1.71,2.14,2.14,0,0,0,.24.68h-1A2,2,0,0,1,64.64,78.7Zm-0.08-2.16A7.05,7.05,0,0,1,63,76.9a3.7,3.7,0,0,0-.84.19,0.85,0.85,0,0,0-.38.31,0.85,0.85,0,0,0,.16,1.1,1.26,1.26,0,0,0,.86.26,2,2,0,0,0,1-.24,1.51,1.51,0,0,0,.64-0.67,2.34,2.34,0,0,0,.16-1V76.54Z" transform="translate(-16.92 -9.71)"/><path class="cls-2" d="M66.65,77.7l1-.15a1.33,1.33,0,0,0,.45.88,1.56,1.56,0,0,0,1,.31,1.51,1.51,0,0,0,1-.27,0.81,0.81,0,0,0,.32-0.64,0.59,0.59,0,0,0-.29-0.52,4.19,4.19,0,0,0-1-.33,8.93,8.93,0,0,1-1.47-.46,1.41,1.41,0,0,1-.83-1.31A1.47,1.47,0,0,1,67,74.51,1.57,1.57,0,0,1,67.46,74a2,2,0,0,1,.62-0.28,2.92,2.92,0,0,1,.83-0.12,3.3,3.3,0,0,1,1.18.19,1.6,1.6,0,0,1,.75.52,2,2,0,0,1,.33.88l-0.95.13a1,1,0,0,0-.37-0.69A1.36,1.36,0,0,0,69,74.36a1.58,1.58,0,0,0-1,.22,0.64,0.64,0,0,0-.29.52,0.53,0.53,0,0,0,.12.34,0.85,0.85,0,0,0,.37.26l0.85,0.25a11.94,11.94,0,0,1,1.43.45,1.46,1.46,0,0,1,.64.51,1.41,1.41,0,0,1,.23.83,1.63,1.63,0,0,1-.28.91,1.83,1.83,0,0,1-.81.66,3,3,0,0,1-1.2.23,2.68,2.68,0,0,1-1.7-.46A2.15,2.15,0,0,1,66.65,77.7Z" transform="translate(-16.92 -9.71)"/><path class="cls-2" d="M76.44,77.56l1,0.12A2.44,2.44,0,0,1,76.56,79a3,3,0,0,1-3.62-.29,3,3,0,0,1-.73-2.16A3.15,3.15,0,0,1,73,74.36a2.51,2.51,0,0,1,1.92-.79,2.44,2.44,0,0,1,1.87.78,3.09,3.09,0,0,1,.73,2.19c0,0.06,0,.14,0,0.26H73.21a2.19,2.19,0,0,0,.53,1.44,1.58,1.58,0,0,0,1.19.5,1.47,1.47,0,0,0,.91-0.28A1.85,1.85,0,0,0,76.44,77.56ZM73.26,76h3.19a1.93,1.93,0,0,0-.37-1.08,1.48,1.48,0,0,0-1.2-.56,1.53,1.53,0,0,0-1.12.45A1.77,1.77,0,0,0,73.26,76Z" transform="translate(-16.92 -9.71)"/><path class="cls-2" d="M81.71,72.64V71.53h1v1.11h-1Zm0,6.76V73.7h1v5.7h-1Z" transform="translate(-16.92 -9.71)"/><path class="cls-2" d="M84.15,79.4V73.7H85v0.81a2,2,0,0,1,1.81-.94,2.37,2.37,0,0,1,.95.19,1.49,1.49,0,0,1,.65.49,1.87,1.87,0,0,1,.3.71,5.49,5.49,0,0,1,.05.94V79.4h-1V75.93A2.64,2.64,0,0,0,87.71,75a0.93,0.93,0,0,0-.4-0.47,1.27,1.27,0,0,0-.67-0.17,1.57,1.57,0,0,0-1.07.39,1.94,1.94,0,0,0-.45,1.49V79.4h-1Z" transform="translate(-16.92 -9.71)"/><path class="cls-2" d="M32.46,93.4h-0.9V85.53h1v2.81a1.91,1.91,0,0,1,1.56-.77,2.39,2.39,0,0,1,1,.21,2,2,0,0,1,.77.6,2.87,2.87,0,0,1,.47.93,3.8,3.8,0,0,1,.17,1.16,3.26,3.26,0,0,1-.72,2.27,2.27,2.27,0,0,1-1.74.8,1.82,1.82,0,0,1-1.58-.84V93.4Zm0-2.89A3,3,0,0,0,32.73,92a1.38,1.38,0,0,0,2.33.2,2.5,2.5,0,0,0,.46-1.64,2.54,2.54,0,0,0-.44-1.65A1.35,1.35,0,0,0,34,88.36a1.39,1.39,0,0,0-1.1.55A2.41,2.41,0,0,0,32.45,90.51Z" transform="translate(-16.92 -9.71)"/><path class="cls-2" d="M37.66,93.4V85.53h1V93.4h-1Z" transform="translate(-16.92 -9.71)"/><path class="cls-2" d="M39.77,90.55a2.94,2.94,0,0,1,.88-2.35,2.65,2.65,0,0,1,1.79-.63,2.56,2.56,0,0,1,1.92.77,2.93,2.93,0,0,1,.75,2.13,3.77,3.77,0,0,1-.33,1.73,2.33,2.33,0,0,1-1,1,2.79,2.79,0,0,1-1.38.35,2.56,2.56,0,0,1-1.94-.77A3.07,3.07,0,0,1,39.77,90.55Zm1,0a2.43,2.43,0,0,0,.48,1.64,1.59,1.59,0,0,0,2.4,0,2.49,2.49,0,0,0,.48-1.67,2.36,2.36,0,0,0-.48-1.6,1.59,1.59,0,0,0-2.4,0A2.42,2.42,0,0,0,40.76,90.55Z" transform="translate(-16.92 -9.71)"/><path class="cls-2" d="M45.89,90.55a2.94,2.94,0,0,1,.88-2.35,2.65,2.65,0,0,1,1.79-.63,2.56,2.56,0,0,1,1.92.77,2.93,2.93,0,0,1,.75,2.13,3.77,3.77,0,0,1-.33,1.73,2.33,2.33,0,0,1-1,1,2.79,2.79,0,0,1-1.38.35,2.56,2.56,0,0,1-1.94-.77A3.07,3.07,0,0,1,45.89,90.55Zm1,0a2.43,2.43,0,0,0,.48,1.64,1.59,1.59,0,0,0,2.4,0,2.49,2.49,0,0,0,.48-1.67,2.36,2.36,0,0,0-.48-1.6,1.59,1.59,0,0,0-2.4,0A2.42,2.42,0,0,0,46.88,90.55Z" transform="translate(-16.92 -9.71)"/><path class="cls-2" d="M56.06,93.4V92.68a1.77,1.77,0,0,1-1.6.85,2.24,2.24,0,0,1-1.25-.38,2.47,2.47,0,0,1-.89-1A3.62,3.62,0,0,1,52,90.55,4.06,4.06,0,0,1,52.3,89a2.25,2.25,0,0,1,.85-1.07,2.29,2.29,0,0,1,1.27-.37,1.9,1.9,0,0,1,1.57.78V85.53h1V93.4h-0.9ZM53,90.55a2.47,2.47,0,0,0,.46,1.64,1.39,1.39,0,0,0,1.09.54,1.37,1.37,0,0,0,1.08-.52,2.39,2.39,0,0,0,.44-1.58,2.68,2.68,0,0,0-.45-1.72,1.39,1.39,0,0,0-1.11-.55,1.34,1.34,0,0,0-1.08.53A2.6,2.6,0,0,0,53,90.55Z" transform="translate(-16.92 -9.71)"/><path class="cls-2" d="M58.09,91.7l1-.15a1.33,1.33,0,0,0,.45.88,1.56,1.56,0,0,0,1,.31,1.51,1.51,0,0,0,1-.27,0.81,0.81,0,0,0,.32-0.64,0.59,0.59,0,0,0-.29-0.52,4.19,4.19,0,0,0-1-.33,8.93,8.93,0,0,1-1.47-.46,1.41,1.41,0,0,1-.83-1.31,1.47,1.47,0,0,1,.17-0.71A1.57,1.57,0,0,1,58.9,88a2,2,0,0,1,.62-0.28,2.92,2.92,0,0,1,.83-0.12,3.3,3.3,0,0,1,1.18.19,1.6,1.6,0,0,1,.75.52,2,2,0,0,1,.33.88l-0.95.13a1,1,0,0,0-.37-0.69,1.36,1.36,0,0,0-.87-0.25,1.58,1.58,0,0,0-1,.22,0.64,0.64,0,0,0-.29.52,0.53,0.53,0,0,0,.12.34,0.85,0.85,0,0,0,.37.26l0.85,0.25a11.94,11.94,0,0,1,1.43.45,1.46,1.46,0,0,1,.64.51,1.41,1.41,0,0,1,.23.83,1.63,1.63,0,0,1-.28.91,1.83,1.83,0,0,1-.81.66,3,3,0,0,1-1.2.23,2.68,2.68,0,0,1-1.7-.46A2.15,2.15,0,0,1,58.09,91.7Z" transform="translate(-16.92 -9.71)"/><path class="cls-2" d="M66.09,92.54l0.14,0.85a3.57,3.57,0,0,1-.73.09,1.65,1.65,0,0,1-.82-0.17,0.93,0.93,0,0,1-.41-0.44,3.45,3.45,0,0,1-.12-1.14V88.45H63.45V87.7h0.71V86.28l1-.58v2h1v0.75h-1v3.33a1.67,1.67,0,0,0,.05.53,0.4,0.4,0,0,0,.17.19,0.65,0.65,0,0,0,.33.07Z" transform="translate(-16.92 -9.71)"/><path class="cls-2" d="M67,93.4V87.7H67.9v0.86a2.37,2.37,0,0,1,.62-0.8,1.07,1.07,0,0,1,.62-0.19,1.88,1.88,0,0,1,1,.31l-0.33.9a1.39,1.39,0,0,0-.71-0.21,0.92,0.92,0,0,0-.57.19,1,1,0,0,0-.36.53A3.77,3.77,0,0,0,68,90.41v3H67Z" transform="translate(-16.92 -9.71)"/><path class="cls-2" d="M74.6,91.56l1,0.12A2.44,2.44,0,0,1,74.73,93a3,3,0,0,1-3.62-.29,3,3,0,0,1-.73-2.16,3.15,3.15,0,0,1,.74-2.23A2.51,2.51,0,0,1,73,87.57a2.44,2.44,0,0,1,1.87.78,3.09,3.09,0,0,1,.73,2.19c0,0.06,0,.14,0,0.26H71.38a2.19,2.19,0,0,0,.53,1.44,1.58,1.58,0,0,0,1.19.5A1.47,1.47,0,0,0,74,92.46,1.85,1.85,0,0,0,74.6,91.56ZM71.43,90h3.19a1.93,1.93,0,0,0-.37-1.08,1.48,1.48,0,0,0-1.2-.56,1.53,1.53,0,0,0-1.12.45A1.77,1.77,0,0,0,71.43,90Z" transform="translate(-16.92 -9.71)"/><path class="cls-2" d="M80.54,92.7a3.64,3.64,0,0,1-1,.64,3,3,0,0,1-1.07.19A2.08,2.08,0,0,1,77,93.07a1.52,1.52,0,0,1-.5-1.17,1.59,1.59,0,0,1,.69-1.32,2.37,2.37,0,0,1,.7-0.32,7.05,7.05,0,0,1,.86-0.14,8.83,8.83,0,0,0,1.72-.33c0-.13,0-0.22,0-0.25a1.06,1.06,0,0,0-.27-0.83,1.61,1.61,0,0,0-1.1-.33,1.71,1.71,0,0,0-1,.24,1.46,1.46,0,0,0-.48.85l-0.95-.13a2.34,2.34,0,0,1,.42-1,1.86,1.86,0,0,1,.85-0.58,3.83,3.83,0,0,1,1.29-.2,3.44,3.44,0,0,1,1.19.17,1.56,1.56,0,0,1,.67.43,1.52,1.52,0,0,1,.3.66,5.44,5.44,0,0,1,0,.89V91a13.67,13.67,0,0,0,.06,1.71,2.14,2.14,0,0,0,.24.68h-1A2,2,0,0,1,80.54,92.7Zm-0.08-2.16a7.05,7.05,0,0,1-1.58.37,3.7,3.7,0,0,0-.84.19,0.85,0.85,0,0,0-.38.31,0.85,0.85,0,0,0,.16,1.1,1.26,1.26,0,0,0,.86.26,2,2,0,0,0,1-.24,1.51,1.51,0,0,0,.64-0.67,2.34,2.34,0,0,0,.16-1V90.54Z" transform="translate(-16.92 -9.71)"/><path class="cls-2" d="M82.93,93.4V87.7H83.8v0.8a2,2,0,0,1,1.73-.93,1.88,1.88,0,0,1,1,.26,1.41,1.41,0,0,1,.57.74,2,2,0,0,1,1.76-1,1.74,1.74,0,0,1,1.31.47,2,2,0,0,1,.46,1.45V93.4h-1V89.81A2.65,2.65,0,0,0,89.61,89a0.81,0.81,0,0,0-.34-0.41,1.07,1.07,0,0,0-.58-0.16,1.35,1.35,0,0,0-1,.4,1.76,1.76,0,0,0-.4,1.28V93.4h-1V89.69a1.63,1.63,0,0,0-.24-1,0.89,0.89,0,0,0-.77-0.32,1.4,1.4,0,0,0-.75.21,1.22,1.22,0,0,0-.5.63,3.55,3.55,0,0,0-.16,1.19v3h-1Z" transform="translate(-16.92 -9.71)"/><path class="cls-2" d="M32.8,100.64V99.53h1v1.11h-1Zm0,6.76v-5.7h1v5.7h-1Z" transform="translate(-16.92 -9.71)"/><path class="cls-2" d="M35.23,107.4v-5.7H36.1v0.81a2,2,0,0,1,1.81-.94,2.37,2.37,0,0,1,.95.19,1.49,1.49,0,0,1,.65.49,1.87,1.87,0,0,1,.3.71,5.49,5.49,0,0,1,.05.94v3.51h-1v-3.47a2.64,2.64,0,0,0-.11-0.88,0.93,0.93,0,0,0-.4-0.47,1.27,1.27,0,0,0-.67-0.17,1.57,1.57,0,0,0-1.07.39,1.94,1.94,0,0,0-.45,1.49v3.12h-1Z" transform="translate(-16.92 -9.71)"/><path class="cls-2" d="M41.58,107.4v-5H40.73V101.7h0.85v-0.61a2.65,2.65,0,0,1,.1-0.85,1.23,1.23,0,0,1,.49-0.61,1.77,1.77,0,0,1,1-.23,4.72,4.72,0,0,1,.9.1l-0.14.84a3.22,3.22,0,0,0-.57-0.05,0.85,0.85,0,0,0-.62.19,1,1,0,0,0-.18.7v0.53h1.11v0.75H42.54v5h-1Z" transform="translate(-16.92 -9.71)"/><path class="cls-2" d="M48.31,105.56l1,0.12a2.44,2.44,0,0,1-.87,1.36,3,3,0,0,1-3.62-.29,3,3,0,0,1-.73-2.16,3.15,3.15,0,0,1,.74-2.23,2.51,2.51,0,0,1,1.92-.79,2.44,2.44,0,0,1,1.87.78,3.09,3.09,0,0,1,.73,2.19c0,0.06,0,.14,0,0.26H45.09a2.19,2.19,0,0,0,.53,1.44,1.58,1.58,0,0,0,1.19.5,1.47,1.47,0,0,0,.91-0.28A1.85,1.85,0,0,0,48.31,105.56ZM45.14,104h3.19a1.93,1.93,0,0,0-.37-1.08,1.48,1.48,0,0,0-1.2-.56,1.53,1.53,0,0,0-1.12.45A1.77,1.77,0,0,0,45.14,104Z" transform="translate(-16.92 -9.71)"/><path class="cls-2" d="M54.25,105.31l1,0.12a2.47,2.47,0,0,1-.8,1.54,2.33,2.33,0,0,1-1.58.56,2.45,2.45,0,0,1-1.88-.77,3.1,3.1,0,0,1-.71-2.19,4,4,0,0,1,.31-1.62,2.13,2.13,0,0,1,.93-1,2.76,2.76,0,0,1,1.36-.35,2.36,2.36,0,0,1,1.52.47,2.16,2.16,0,0,1,.76,1.33l-0.94.15a1.56,1.56,0,0,0-.48-0.87,1.23,1.23,0,0,0-.83-0.29,1.5,1.5,0,0,0-1.19.52,2.49,2.49,0,0,0-.46,1.66,2.57,2.57,0,0,0,.44,1.67,1.44,1.44,0,0,0,1.15.52,1.35,1.35,0,0,0,1-.35A1.73,1.73,0,0,0,54.25,105.31Z" transform="translate(-16.92 -9.71)"/><path class="cls-2" d="M58.14,106.54l0.14,0.85a3.57,3.57,0,0,1-.73.09,1.65,1.65,0,0,1-.82-0.17,0.93,0.93,0,0,1-.41-0.44,3.45,3.45,0,0,1-.12-1.14v-3.28H55.49V101.7H56.2v-1.41l1-.58v2h1v0.75h-1v3.33a1.67,1.67,0,0,0,.05.53,0.4,0.4,0,0,0,.17.19,0.65,0.65,0,0,0,.33.07Z" transform="translate(-16.92 -9.71)"/><path class="cls-2" d="M59.09,100.64V99.53h1v1.11h-1Zm0,6.76v-5.7h1v5.7h-1Z" transform="translate(-16.92 -9.71)"/><path class="cls-2" d="M61.17,104.55A2.94,2.94,0,0,1,62,102.2a2.65,2.65,0,0,1,1.79-.63,2.56,2.56,0,0,1,1.92.77,2.93,2.93,0,0,1,.75,2.13,3.77,3.77,0,0,1-.33,1.73,2.33,2.33,0,0,1-1,1,2.79,2.79,0,0,1-1.38.35,2.56,2.56,0,0,1-1.94-.77A3.07,3.07,0,0,1,61.17,104.55Zm1,0a2.43,2.43,0,0,0,.48,1.64,1.59,1.59,0,0,0,2.4,0,2.49,2.49,0,0,0,.48-1.67,2.36,2.36,0,0,0-.48-1.6,1.59,1.59,0,0,0-2.4,0A2.42,2.42,0,0,0,62.16,104.55Z" transform="translate(-16.92 -9.71)"/><path class="cls-2" d="M67.64,107.4v-5.7h0.87v0.81a2,2,0,0,1,1.81-.94,2.37,2.37,0,0,1,.95.19,1.49,1.49,0,0,1,.65.49,1.87,1.87,0,0,1,.3.71,5.49,5.49,0,0,1,.05.94v3.51h-1v-3.47A2.64,2.64,0,0,0,71.2,103a0.93,0.93,0,0,0-.4-0.47,1.27,1.27,0,0,0-.67-0.17,1.57,1.57,0,0,0-1.07.39,1.94,1.94,0,0,0-.45,1.49v3.12h-1Z" transform="translate(-16.92 -9.71)"/><path class="cls-2" d="M73.37,105.7l1-.15a1.33,1.33,0,0,0,.45.88,1.56,1.56,0,0,0,1,.31,1.51,1.51,0,0,0,1-.27,0.81,0.81,0,0,0,.32-0.64,0.59,0.59,0,0,0-.29-0.52,4.19,4.19,0,0,0-1-.33,8.93,8.93,0,0,1-1.47-.46,1.41,1.41,0,0,1-.83-1.31,1.47,1.47,0,0,1,.17-0.71,1.57,1.57,0,0,1,.48-0.54,2,2,0,0,1,.62-0.28,2.92,2.92,0,0,1,.83-0.12,3.3,3.3,0,0,1,1.18.19,1.6,1.6,0,0,1,.75.52,2,2,0,0,1,.33.88L77,103.3a1,1,0,0,0-.37-0.69,1.36,1.36,0,0,0-.87-0.25,1.58,1.58,0,0,0-1,.22,0.64,0.64,0,0,0-.29.52,0.53,0.53,0,0,0,.12.34,0.85,0.85,0,0,0,.37.26l0.85,0.25a11.94,11.94,0,0,1,1.43.45,1.46,1.46,0,0,1,.64.51,1.41,1.41,0,0,1,.23.83,1.63,1.63,0,0,1-.28.91,1.83,1.83,0,0,1-.81.66,3,3,0,0,1-1.2.23,2.68,2.68,0,0,1-1.7-.46A2.15,2.15,0,0,1,73.37,105.7Z" transform="translate(-16.92 -9.71)"/><path class="cls-2" d="M82.32,100.64V99.53h1v1.11h-1Zm0,6.76v-5.7h1v5.7h-1Z" transform="translate(-16.92 -9.71)"/><path class="cls-2" d="M84.76,107.4v-5.7h0.87v0.81a2,2,0,0,1,1.81-.94,2.37,2.37,0,0,1,.95.19,1.49,1.49,0,0,1,.65.49,1.87,1.87,0,0,1,.3.71,5.49,5.49,0,0,1,.05.94v3.51h-1v-3.47a2.64,2.64,0,0,0-.11-0.88,0.93,0.93,0,0,0-.4-0.47,1.27,1.27,0,0,0-.67-0.17,1.57,1.57,0,0,0-1.07.39,1.94,1.94,0,0,0-.45,1.49v3.12h-1Z" transform="translate(-16.92 -9.71)"/><path class="cls-2" d="M31.87,121.4v-7.87h1v7.87h-1Z" transform="translate(-16.92 -9.71)"/><path class="cls-2" d="M40.37,118.64l1,0.26a3.51,3.51,0,0,1-1.18,2,3.25,3.25,0,0,1-2.08.67,3.74,3.74,0,0,1-2.07-.52,3.24,3.24,0,0,1-1.21-1.5,5.36,5.36,0,0,1-.42-2.11,4.64,4.64,0,0,1,.47-2.15,3.23,3.23,0,0,1,1.34-1.39,3.91,3.91,0,0,1,1.91-.47,3.23,3.23,0,0,1,2,.6,3.13,3.13,0,0,1,1.12,1.69l-1,.24a2.43,2.43,0,0,0-.79-1.25,2.12,2.12,0,0,0-1.31-.39,2.55,2.55,0,0,0-1.52.44,2.3,2.3,0,0,0-.86,1.17,4.7,4.7,0,0,0-.25,1.51,4.8,4.8,0,0,0,.29,1.75,2.18,2.18,0,0,0,.91,1.12,2.55,2.55,0,0,0,1.34.37,2.24,2.24,0,0,0,1.48-.5A2.59,2.59,0,0,0,40.37,118.64Z" transform="translate(-16.92 -9.71)"/><path class="cls-2" d="M47.86,113.53h1v4.55a5.39,5.39,0,0,1-.27,1.88,2.3,2.3,0,0,1-1,1.14,3.43,3.43,0,0,1-1.84.44,3.78,3.78,0,0,1-1.81-.38,2.17,2.17,0,0,1-1-1.1,5.25,5.25,0,0,1-.3-2v-4.55h1v4.54a4.43,4.43,0,0,0,.19,1.51,1.45,1.45,0,0,0,.66.75,2.28,2.28,0,0,0,1.14.26,2.17,2.17,0,0,0,1.64-.52,3,3,0,0,0,.49-2v-4.54Z" transform="translate(-16.92 -9.71)"/><path class="cls-2" d="M53.57,123.59V115.7h0.88v0.74a2.17,2.17,0,0,1,.7-0.65,1.93,1.93,0,0,1,1-.22,2.25,2.25,0,0,1,1.29.38,2.31,2.31,0,0,1,.84,1.06,3.88,3.88,0,0,1,.29,1.5,3.82,3.82,0,0,1-.31,1.58,2.37,2.37,0,0,1-.91,1.07,2.34,2.34,0,0,1-1.26.37,1.82,1.82,0,0,1-.87-0.2,2,2,0,0,1-.63-0.52v2.78h-1Zm0.88-5a2.48,2.48,0,0,0,.45,1.63,1.37,1.37,0,0,0,1.08.53,1.4,1.4,0,0,0,1.1-.54,2.58,2.58,0,0,0,.46-1.69,2.52,2.52,0,0,0-.45-1.63,1.35,1.35,0,0,0-1.07-.54,1.39,1.39,0,0,0-1.09.58A2.58,2.58,0,0,0,54.45,118.58Z" transform="translate(-16.92 -9.71)"/><path class="cls-2" d="M63.41,120.7a3.64,3.64,0,0,1-1,.64,3,3,0,0,1-1.07.19,2.08,2.08,0,0,1-1.45-.46,1.52,1.52,0,0,1-.5-1.17,1.59,1.59,0,0,1,.69-1.32,2.37,2.37,0,0,1,.7-0.32,7.05,7.05,0,0,1,.86-0.14,8.83,8.83,0,0,0,1.72-.33c0-.13,0-0.22,0-0.25a1.06,1.06,0,0,0-.27-0.83,1.61,1.61,0,0,0-1.1-.33,1.71,1.71,0,0,0-1,.24,1.46,1.46,0,0,0-.48.85l-0.95-.13a2.34,2.34,0,0,1,.42-1,1.86,1.86,0,0,1,.85-0.58,3.83,3.83,0,0,1,1.29-.2,3.44,3.44,0,0,1,1.19.17,1.56,1.56,0,0,1,.67.43,1.52,1.52,0,0,1,.3.66,5.44,5.44,0,0,1,0,.89V119a13.67,13.67,0,0,0,.06,1.71,2.14,2.14,0,0,0,.24.68h-1A2,2,0,0,1,63.41,120.7Zm-0.08-2.16a7.05,7.05,0,0,1-1.58.37,3.7,3.7,0,0,0-.84.19,0.85,0.85,0,0,0-.38.31,0.85,0.85,0,0,0,.16,1.1,1.26,1.26,0,0,0,.86.26,2,2,0,0,0,1-.24,1.51,1.51,0,0,0,.64-0.67,2.34,2.34,0,0,0,.16-1v-0.36Z" transform="translate(-16.92 -9.71)"/><path class="cls-2" d="M67.92,120.54l0.14,0.85a3.57,3.57,0,0,1-.73.09,1.65,1.65,0,0,1-.82-0.17,0.93,0.93,0,0,1-.41-0.44,3.45,3.45,0,0,1-.12-1.14v-3.28H65.27V115.7H66v-1.41l1-.58v2h1v0.75h-1v3.33a1.67,1.67,0,0,0,.05.53,0.4,0.4,0,0,0,.17.19,0.65,0.65,0,0,0,.33.07Z" transform="translate(-16.92 -9.71)"/><path class="cls-2" d="M68.87,114.64v-1.11h1v1.11h-1Zm0,6.76v-5.7h1v5.7h-1Z" transform="translate(-16.92 -9.71)"/><path class="cls-2" d="M75.21,119.56l1,0.12a2.44,2.44,0,0,1-.87,1.36,3,3,0,0,1-3.62-.29A3,3,0,0,1,71,118.6a3.15,3.15,0,0,1,.74-2.23,2.51,2.51,0,0,1,1.92-.79,2.44,2.44,0,0,1,1.87.78,3.09,3.09,0,0,1,.73,2.19c0,0.06,0,.14,0,0.26H72a2.19,2.19,0,0,0,.53,1.44,1.58,1.58,0,0,0,1.19.5,1.47,1.47,0,0,0,.91-0.28A1.85,1.85,0,0,0,75.21,119.56ZM72,118h3.19a1.93,1.93,0,0,0-.37-1.08,1.48,1.48,0,0,0-1.2-.56,1.53,1.53,0,0,0-1.12.45A1.77,1.77,0,0,0,72,118Z" transform="translate(-16.92 -9.71)"/><path class="cls-2" d="M77.42,121.4v-5.7h0.87v0.81a2,2,0,0,1,1.81-.94,2.37,2.37,0,0,1,.95.19,1.49,1.49,0,0,1,.65.49,1.87,1.87,0,0,1,.3.71,5.49,5.49,0,0,1,.05.94v3.51h-1v-3.47A2.64,2.64,0,0,0,81,117a0.93,0.93,0,0,0-.4-0.47,1.27,1.27,0,0,0-.67-0.17,1.57,1.57,0,0,0-1.07.39,1.94,1.94,0,0,0-.45,1.49v3.12h-1Z" transform="translate(-16.92 -9.71)"/><path class="cls-2" d="M85.65,120.54l0.14,0.85a3.57,3.57,0,0,1-.73.09,1.65,1.65,0,0,1-.82-0.17,0.93,0.93,0,0,1-.41-0.44,3.45,3.45,0,0,1-.12-1.14v-3.28H83V115.7h0.71v-1.41l1-.58v2h1v0.75h-1v3.33a1.67,1.67,0,0,0,.05.53,0.4,0.4,0,0,0,.17.19,0.65,0.65,0,0,0,.33.07Z" transform="translate(-16.92 -9.71)"/><path class="cls-2" d="M86.21,119.7l1-.15a1.33,1.33,0,0,0,.45.88,1.56,1.56,0,0,0,1,.31,1.51,1.51,0,0,0,1-.27,0.81,0.81,0,0,0,.32-0.64,0.59,0.59,0,0,0-.29-0.52,4.19,4.19,0,0,0-1-.33,8.93,8.93,0,0,1-1.47-.46,1.41,1.41,0,0,1-.83-1.31,1.47,1.47,0,0,1,.17-0.71A1.57,1.57,0,0,1,87,116a2,2,0,0,1,.62-0.28,2.92,2.92,0,0,1,.83-0.12,3.3,3.3,0,0,1,1.18.19,1.6,1.6,0,0,1,.75.52,2,2,0,0,1,.33.88l-0.95.13a1,1,0,0,0-.37-0.69,1.36,1.36,0,0,0-.87-0.25,1.58,1.58,0,0,0-1,.22,0.64,0.64,0,0,0-.29.52,0.53,0.53,0,0,0,.12.34,0.85,0.85,0,0,0,.37.26l0.85,0.25a11.94,11.94,0,0,1,1.43.45,1.46,1.46,0,0,1,.64.51,1.41,1.41,0,0,1,.23.83,1.63,1.63,0,0,1-.28.91,1.83,1.83,0,0,1-.81.66,3,3,0,0,1-1.2.23,2.68,2.68,0,0,1-1.7-.46A2.15,2.15,0,0,1,86.21,119.7Z" transform="translate(-16.92 -9.71)"/></svg>