<svg id="Layer_3" data-name="Layer 3" xmlns="http://www.w3.org/2000/svg" viewBox="0 0 74 74"><defs><style>.cls-1{fill:#e15829;}.cls-2,.cls-3{fill:none;stroke:#fff;}.cls-2{stroke-linecap:round;stroke-linejoin:round;stroke-width:2px;}.cls-3{stroke-miterlimit:10;}</style></defs><title>hands-icon</title><circle class="cls-1" cx="37" cy="37" r="37"/><circle class="cls-2" cx="37" cy="23.94" r="14"/><ellipse class="cls-2" cx="37" cy="23.94" rx="7.28" ry="14"/><line class="cls-2" x1="37" y1="9.94" x2="37" y2="37.94"/><line class="cls-2" x1="23" y1="23.94" x2="51" y2="23.94"/><path class="cls-2" d="M39.09,28.16A21.38,21.38,0,0,0,50,30.78,21.38,21.38,0,0,0,60.9,28.16" transform="translate(-13 -13)"/><path class="cls-2" d="M60.9,45.71A21.38,21.38,0,0,0,50,43.1a21.38,21.38,0,0,0-10.91,2.61" transform="translate(-13 -13)"/><path class="cls-3" d="M68.58,55.42l0,0c2-2.28,3.1-3.78,4-4.27-0.49-.75.9-8.52,1.37-11.21s4-2.64,4,.15V52.55c0,0.73-5.6,9.66-7.29,11.7a8,8,0,0,1-3.92,2.47A4,4,0,0,0,64,70.57v6.49H55V66.6c0-9.25,4.39-12.25,8.37-13.55A36.29,36.29,0,0,0,66.6,49c1.75-3.16,3.42-3.82,4.83-2.88a2.29,2.29,0,0,1,.75,2.55A20.83,20.83,0,0,1,68.58,55.42Z" transform="translate(-13 -13)"/><path class="cls-3" d="M31.42,55.42a20.83,20.83,0,0,1-3.59-6.78,2.29,2.29,0,0,1,.75-2.55c1.42-.94,3.09-0.28,4.84,2.88a34.89,34.89,0,0,0,3.22,4.08c4,1.3,8.37,4.3,8.37,13.55V77.06H36V70.57a4,4,0,0,0-2.79-3.85,8.14,8.14,0,0,1-3.92-2.47c-1.69-2-7.29-11-7.29-11.7V40.12c0-2.79,3.5-3,4-.15s1.87,10.46,1.37,11.21c0.91,0.49,2,2,4,4.27Z" transform="translate(-13 -13)"/><path class="cls-2" d="M45,77.06V66.6c0-9.25-4.39-12.25-8.37-13.55A34.89,34.89,0,0,1,33.42,49c-1.75-3.16-3.42-3.82-4.84-2.88a2.29,2.29,0,0,0-.75,2.55,20.83,20.83,0,0,0,3.59,6.78c0.23,0.29.47,0.56,0.7,0.8a14.4,14.4,0,0,0,.66,2.57" transform="translate(-13 -13)"/><path class="cls-2" d="M31.39,55.45c-2-2.28-3.11-3.78-4-4.27,0.5-.75-0.9-8.52-1.37-11.21s-4-2.64-4,.15V52.55c0,0.73,5.6,9.66,7.29,11.7a8.14,8.14,0,0,0,3.92,2.47A4,4,0,0,1,36,70.57v6.49" transform="translate(-13 -13)"/><path class="cls-2" d="M55,77.06V66.6c0-9.25,4.39-12.25,8.37-13.55A36.29,36.29,0,0,0,66.6,49c1.75-3.16,3.42-3.82,4.83-2.88a2.29,2.29,0,0,1,.75,2.55,20.83,20.83,0,0,1-3.59,6.78c-0.23.29-.47,0.56-0.7,0.8a13.52,13.52,0,0,1-.66,2.57" transform="translate(-13 -13)"/><path class="cls-2" d="M68.63,55.45c2-2.28,3.1-3.78,4-4.27-0.49-.75.9-8.52,1.37-11.21s4-2.64,4,.15V52.55c0,0.73-5.6,9.66-7.29,11.7a8,8,0,0,1-3.92,2.47A4,4,0,0,0,64,70.57v6.49" transform="translate(-13 -13)"/></svg>