<svg id="Layer_2" data-name="Layer 2" xmlns="http://www.w3.org/2000/svg" viewBox="0 0 74 74"><defs><style>.cls-1{fill:#e15829;}.cls-2{fill:none;stroke:#fff;stroke-linecap:round;stroke-linejoin:round;stroke-width:2px;}</style></defs><title>microscope-icon</title><circle class="cls-1" cx="37" cy="37" r="37"/><line class="cls-2" x1="14" y1="47.31" x2="31.45" y2="47.31"/><path class="cls-2" d="M27,73H63.48a8,8,0,0,0,7.93-7.93V47.62a8,8,0,0,0-7.93-7.93H47.58" transform="translate(-13 -13)"/><rect class="cls-2" x="32.95" y="35.59" width="18" height="10" transform="translate(-23.3 53.62) rotate(-70.53)"/><rect class="cls-2" x="43.62" y="28.22" width="4" height="4" transform="translate(-11.08 50.15) rotate(-70.53)"/><line class="cls-2" x1="29.51" y1="14" x2="37.06" y2="16.67"/><path class="cls-2" d="M37.31,60.31l4,6.34H57.14c4.42,0,6.34-2.72,6.34-7.14v-4c0-4.42-1.59-7.93-6.34-7.93h-4L47,41.46" transform="translate(-13 -13)"/><line class="cls-2" x1="18.76" y1="47.31" x2="18.76" y2="60"/><rect class="cls-2" x="34.01" y="49.57" width="6" height="4" transform="translate(-36.96 56.23) rotate(-70.48)"/><line class="cls-2" x1="48.9" y1="60" x2="60" y2="60"/></svg>