<svg id="Layer_1" data-name="Layer 1" xmlns="http://www.w3.org/2000/svg" viewBox="0 0 155.69 99.22"><defs><style>.cls-1{fill:#e0dad6;}.cls-2{fill:none;stroke:#e15829;stroke-miterlimit:10;stroke-width:1.5px;}</style></defs><title>people-graphic</title><path class="cls-1" d="M23.62,18.7H18.1a2.67,2.67,0,0,0-2.67,2.67v6a2.67,2.67,0,0,0,1.7,2.48V37a2.21,2.21,0,0,0,2.21,2.21h3A2.21,2.21,0,0,0,24.6,37V29.86a2.67,2.67,0,0,0,1.7-2.48v-6A2.67,2.67,0,0,0,23.62,18.7Z" transform="translate(-10.68 -8)"/><circle class="cls-1" cx="10.26" cy="6.59" r="3.34"/><path class="cls-1" d="M39.19,18.7H33.66A2.67,2.67,0,0,0,31,21.37v6a2.67,2.67,0,0,0,1.7,2.48V37a2.21,2.21,0,0,0,2.21,2.21h3A2.21,2.21,0,0,0,40.16,37V29.86a2.67,2.67,0,0,0,1.7-2.48v-6A2.67,2.67,0,0,0,39.19,18.7Z" transform="translate(-10.68 -8)"/><circle class="cls-1" cx="25.83" cy="6.59" r="3.34"/><path class="cls-1" d="M54.75,18.7H49.23a2.67,2.67,0,0,0-2.67,2.67v6a2.67,2.67,0,0,0,1.7,2.48V37a2.21,2.21,0,0,0,2.21,2.21h3A2.21,2.21,0,0,0,55.73,37V29.86a2.67,2.67,0,0,0,1.7-2.48v-6A2.67,2.67,0,0,0,54.75,18.7Z" transform="translate(-10.68 -8)"/><circle class="cls-1" cx="41.39" cy="6.59" r="3.34"/><path class="cls-1" d="M70.32,18.7H64.79a2.67,2.67,0,0,0-2.67,2.67v6a2.67,2.67,0,0,0,1.7,2.48V37A2.21,2.21,0,0,0,66,39.22h3A2.21,2.21,0,0,0,71.29,37V29.86A2.67,2.67,0,0,0,73,27.38v-6A2.67,2.67,0,0,0,70.32,18.7Z" transform="translate(-10.68 -8)"/><circle class="cls-1" cx="56.95" cy="6.59" r="3.34"/><path class="cls-1" d="M85.88,18.7H80.35a2.67,2.67,0,0,0-2.67,2.67v6a2.67,2.67,0,0,0,1.7,2.48V37a2.21,2.21,0,0,0,2.21,2.21h3A2.21,2.21,0,0,0,86.85,37V29.86a2.67,2.67,0,0,0,1.7-2.48v-6A2.67,2.67,0,0,0,85.88,18.7Z" transform="translate(-10.68 -8)"/><circle class="cls-1" cx="72.52" cy="6.59" r="3.34"/><path class="cls-1" d="M101.44,18.7H95.92a2.67,2.67,0,0,0-2.67,2.67v6a2.67,2.67,0,0,0,1.7,2.48V37a2.21,2.21,0,0,0,2.21,2.21h3A2.21,2.21,0,0,0,102.42,37V29.86a2.67,2.67,0,0,0,1.7-2.48v-6A2.67,2.67,0,0,0,101.44,18.7Z" transform="translate(-10.68 -8)"/><circle class="cls-1" cx="88.08" cy="6.59" r="3.34"/><path class="cls-1" d="M117,18.7h-5.53a2.67,2.67,0,0,0-2.67,2.67v6a2.67,2.67,0,0,0,1.7,2.48V37a2.21,2.21,0,0,0,2.21,2.21h3A2.21,2.21,0,0,0,118,37V29.86a2.67,2.67,0,0,0,1.7-2.48v-6A2.67,2.67,0,0,0,117,18.7Z" transform="translate(-10.68 -8)"/><circle class="cls-1" cx="103.65" cy="6.59" r="3.34"/><path class="cls-1" d="M132.57,18.7H127a2.67,2.67,0,0,0-2.67,2.67v6a2.67,2.67,0,0,0,1.7,2.48V37a2.21,2.21,0,0,0,2.21,2.21h3A2.21,2.21,0,0,0,133.55,37V29.86a2.67,2.67,0,0,0,1.7-2.48v-6A2.67,2.67,0,0,0,132.57,18.7Z" transform="translate(-10.68 -8)"/><circle class="cls-1" cx="119.21" cy="6.59" r="3.34"/><path class="cls-1" d="M148.14,18.7h-5.53a2.67,2.67,0,0,0-2.67,2.67v6a2.67,2.67,0,0,0,1.7,2.48V37a2.21,2.21,0,0,0,2.21,2.21h3A2.21,2.21,0,0,0,149.11,37V29.86a2.67,2.67,0,0,0,1.7-2.48v-6A2.67,2.67,0,0,0,148.14,18.7Z" transform="translate(-10.68 -8)"/><circle class="cls-1" cx="134.77" cy="6.59" r="3.34"/><path class="cls-1" d="M163.7,18.7h-5.53a2.67,2.67,0,0,0-2.67,2.67v6a2.67,2.67,0,0,0,1.7,2.48V37a2.21,2.21,0,0,0,2.21,2.21h3A2.21,2.21,0,0,0,164.67,37V29.86a2.67,2.67,0,0,0,1.7-2.48v-6A2.67,2.67,0,0,0,163.7,18.7Z" transform="translate(-10.68 -8)"/><circle class="cls-1" cx="150.34" cy="6.59" r="3.34"/><path class="cls-1" d="M23.62,52.7H18.1a2.67,2.67,0,0,0-2.67,2.67v6a2.67,2.67,0,0,0,1.7,2.48V71a2.21,2.21,0,0,0,2.21,2.21h3A2.21,2.21,0,0,0,24.6,71V63.86a2.67,2.67,0,0,0,1.7-2.48v-6A2.67,2.67,0,0,0,23.62,52.7Z" transform="translate(-10.68 -8)"/><circle class="cls-1" cx="10.26" cy="40.59" r="3.34"/><path class="cls-1" d="M39.19,52.7H33.66A2.67,2.67,0,0,0,31,55.37v6a2.67,2.67,0,0,0,1.7,2.48V71a2.21,2.21,0,0,0,2.21,2.21h3A2.21,2.21,0,0,0,40.16,71V63.86a2.67,2.67,0,0,0,1.7-2.48v-6A2.67,2.67,0,0,0,39.19,52.7Z" transform="translate(-10.68 -8)"/><circle class="cls-1" cx="25.83" cy="40.59" r="3.34"/><path class="cls-1" d="M54.75,52.7H49.23a2.67,2.67,0,0,0-2.67,2.67v6a2.67,2.67,0,0,0,1.7,2.48V71a2.21,2.21,0,0,0,2.21,2.21h3A2.21,2.21,0,0,0,55.73,71V63.86a2.67,2.67,0,0,0,1.7-2.48v-6A2.67,2.67,0,0,0,54.75,52.7Z" transform="translate(-10.68 -8)"/><circle class="cls-1" cx="41.39" cy="40.59" r="3.34"/><path class="cls-1" d="M70.32,52.7H64.79a2.67,2.67,0,0,0-2.67,2.67v6a2.67,2.67,0,0,0,1.7,2.48V71A2.21,2.21,0,0,0,66,73.22h3A2.21,2.21,0,0,0,71.29,71V63.86A2.67,2.67,0,0,0,73,61.38v-6A2.67,2.67,0,0,0,70.32,52.7Z" transform="translate(-10.68 -8)"/><circle class="cls-1" cx="56.95" cy="40.59" r="3.34"/><path class="cls-1" d="M85.88,52.7H80.35a2.67,2.67,0,0,0-2.67,2.67v6a2.67,2.67,0,0,0,1.7,2.48V71a2.21,2.21,0,0,0,2.21,2.21h3A2.21,2.21,0,0,0,86.85,71V63.86a2.67,2.67,0,0,0,1.7-2.48v-6A2.67,2.67,0,0,0,85.88,52.7Z" transform="translate(-10.68 -8)"/><circle class="cls-1" cx="72.52" cy="40.59" r="3.34"/><path class="cls-1" d="M101.44,52.7H95.92a2.67,2.67,0,0,0-2.67,2.67v6a2.67,2.67,0,0,0,1.7,2.48V71a2.21,2.21,0,0,0,2.21,2.21h3A2.21,2.21,0,0,0,102.42,71V63.86a2.67,2.67,0,0,0,1.7-2.48v-6A2.67,2.67,0,0,0,101.44,52.7Z" transform="translate(-10.68 -8)"/><circle class="cls-1" cx="88.08" cy="40.59" r="3.34"/><path class="cls-1" d="M117,52.7h-5.53a2.67,2.67,0,0,0-2.67,2.67v6a2.67,2.67,0,0,0,1.7,2.48V71a2.21,2.21,0,0,0,2.21,2.21h3A2.21,2.21,0,0,0,118,71V63.86a2.67,2.67,0,0,0,1.7-2.48v-6A2.67,2.67,0,0,0,117,52.7Z" transform="translate(-10.68 -8)"/><circle class="cls-1" cx="103.65" cy="40.59" r="3.34"/><path class="cls-1" d="M132.57,52.7H127a2.67,2.67,0,0,0-2.67,2.67v6a2.67,2.67,0,0,0,1.7,2.48V71a2.21,2.21,0,0,0,2.21,2.21h3A2.21,2.21,0,0,0,133.55,71V63.86a2.67,2.67,0,0,0,1.7-2.48v-6A2.67,2.67,0,0,0,132.57,52.7Z" transform="translate(-10.68 -8)"/><circle class="cls-1" cx="119.21" cy="40.59" r="3.34"/><path class="cls-1" d="M148.14,52.7h-5.53a2.67,2.67,0,0,0-2.67,2.67v6a2.67,2.67,0,0,0,1.7,2.48V71a2.21,2.21,0,0,0,2.21,2.21h3A2.21,2.21,0,0,0,149.11,71V63.86a2.67,2.67,0,0,0,1.7-2.48v-6A2.67,2.67,0,0,0,148.14,52.7Z" transform="translate(-10.68 -8)"/><circle class="cls-1" cx="134.77" cy="40.59" r="3.34"/><path class="cls-1" d="M163.7,52.7h-5.53a2.67,2.67,0,0,0-2.67,2.67v6a2.67,2.67,0,0,0,1.7,2.48V71a2.21,2.21,0,0,0,2.21,2.21h3A2.21,2.21,0,0,0,164.67,71V63.86a2.67,2.67,0,0,0,1.7-2.48v-6A2.67,2.67,0,0,0,163.7,52.7Z" transform="translate(-10.68 -8)"/><circle class="cls-1" cx="150.34" cy="40.59" r="3.34"/><path class="cls-1" d="M23.62,86.7H18.1a2.67,2.67,0,0,0-2.67,2.67v6a2.67,2.67,0,0,0,1.7,2.48V105a2.21,2.21,0,0,0,2.21,2.21h3A2.21,2.21,0,0,0,24.6,105V97.86a2.67,2.67,0,0,0,1.7-2.48v-6A2.67,2.67,0,0,0,23.62,86.7Z" transform="translate(-10.68 -8)"/><circle class="cls-1" cx="10.26" cy="74.59" r="3.34"/><path class="cls-1" d="M39.19,86.7H33.66A2.67,2.67,0,0,0,31,89.37v6a2.67,2.67,0,0,0,1.7,2.48V105a2.21,2.21,0,0,0,2.21,2.21h3A2.21,2.21,0,0,0,40.16,105V97.86a2.67,2.67,0,0,0,1.7-2.48v-6A2.67,2.67,0,0,0,39.19,86.7Z" transform="translate(-10.68 -8)"/><circle class="cls-1" cx="25.83" cy="74.59" r="3.34"/><path class="cls-1" d="M54.75,86.7H49.23a2.67,2.67,0,0,0-2.67,2.67v6a2.67,2.67,0,0,0,1.7,2.48V105a2.21,2.21,0,0,0,2.21,2.21h3A2.21,2.21,0,0,0,55.73,105V97.86a2.67,2.67,0,0,0,1.7-2.48v-6A2.67,2.67,0,0,0,54.75,86.7Z" transform="translate(-10.68 -8)"/><circle class="cls-1" cx="41.39" cy="74.59" r="3.34"/><path class="cls-1" d="M70.32,86.7H64.79a2.67,2.67,0,0,0-2.67,2.67v6a2.67,2.67,0,0,0,1.7,2.48V105A2.21,2.21,0,0,0,66,107.22h3A2.21,2.21,0,0,0,71.29,105V97.86A2.67,2.67,0,0,0,73,95.38v-6A2.67,2.67,0,0,0,70.32,86.7Z" transform="translate(-10.68 -8)"/><circle class="cls-1" cx="56.95" cy="74.59" r="3.34"/><path class="cls-1" d="M85.88,86.7H80.35a2.67,2.67,0,0,0-2.67,2.67v6a2.67,2.67,0,0,0,1.7,2.48V105a2.21,2.21,0,0,0,2.21,2.21h3A2.21,2.21,0,0,0,86.85,105V97.86a2.67,2.67,0,0,0,1.7-2.48v-6A2.67,2.67,0,0,0,85.88,86.7Z" transform="translate(-10.68 -8)"/><circle class="cls-1" cx="72.52" cy="74.59" r="3.34"/><path class="cls-1" d="M101.44,86.7H95.92a2.67,2.67,0,0,0-2.67,2.67v6a2.67,2.67,0,0,0,1.7,2.48V105a2.21,2.21,0,0,0,2.21,2.21h3a2.21,2.21,0,0,0,2.21-2.21V97.86a2.67,2.67,0,0,0,1.7-2.48v-6A2.67,2.67,0,0,0,101.44,86.7Z" transform="translate(-10.68 -8)"/><circle class="cls-1" cx="88.08" cy="74.59" r="3.34"/><path class="cls-1" d="M117,86.7h-5.53a2.67,2.67,0,0,0-2.67,2.67v6a2.67,2.67,0,0,0,1.7,2.48V105a2.21,2.21,0,0,0,2.21,2.21h3A2.21,2.21,0,0,0,118,105V97.86a2.67,2.67,0,0,0,1.7-2.48v-6A2.67,2.67,0,0,0,117,86.7Z" transform="translate(-10.68 -8)"/><circle class="cls-1" cx="103.65" cy="74.59" r="3.34"/><path class="cls-1" d="M132.57,86.7H127a2.67,2.67,0,0,0-2.67,2.67v6a2.67,2.67,0,0,0,1.7,2.48V105a2.21,2.21,0,0,0,2.21,2.21h3a2.21,2.21,0,0,0,2.21-2.21V97.86a2.67,2.67,0,0,0,1.7-2.48v-6A2.67,2.67,0,0,0,132.57,86.7Z" transform="translate(-10.68 -8)"/><circle class="cls-1" cx="119.21" cy="74.59" r="3.34"/><path class="cls-1" d="M148.14,86.7h-5.53a2.67,2.67,0,0,0-2.67,2.67v6a2.67,2.67,0,0,0,1.7,2.48V105a2.21,2.21,0,0,0,2.21,2.21h3a2.21,2.21,0,0,0,2.21-2.21V97.86a2.67,2.67,0,0,0,1.7-2.48v-6A2.67,2.67,0,0,0,148.14,86.7Z" transform="translate(-10.68 -8)"/><circle class="cls-1" cx="134.77" cy="74.59" r="3.34"/><path class="cls-1" d="M163.7,86.7h-5.53a2.67,2.67,0,0,0-2.67,2.67v6a2.67,2.67,0,0,0,1.7,2.48V105a2.21,2.21,0,0,0,2.21,2.21h3a2.21,2.21,0,0,0,2.21-2.21V97.86a2.67,2.67,0,0,0,1.7-2.48v-6A2.67,2.67,0,0,0,163.7,86.7Z" transform="translate(-10.68 -8)"/><circle class="cls-1" cx="150.34" cy="74.59" r="3.34"/><path class="cls-2" d="M19.62,16.2H14.1a2.67,2.67,0,0,0-2.67,2.67v6a2.67,2.67,0,0,0,1.7,2.48V34.5a2.21,2.21,0,0,0,2.21,2.21h3A2.21,2.21,0,0,0,20.6,34.5V27.36a2.67,2.67,0,0,0,1.7-2.48v-6A2.67,2.67,0,0,0,19.62,16.2Z" transform="translate(-10.68 -8)"/><circle class="cls-2" cx="6.26" cy="4.09" r="3.34"/><path class="cls-2" d="M35.19,16.2H29.66A2.67,2.67,0,0,0,27,18.87v6a2.67,2.67,0,0,0,1.7,2.48V34.5a2.21,2.21,0,0,0,2.21,2.21h3a2.21,2.21,0,0,0,2.21-2.21V27.36a2.67,2.67,0,0,0,1.7-2.48v-6A2.67,2.67,0,0,0,35.19,16.2Z" transform="translate(-10.68 -8)"/><circle class="cls-2" cx="21.83" cy="4.09" r="3.34"/><path class="cls-2" d="M50.75,16.2H45.23a2.67,2.67,0,0,0-2.67,2.67v6a2.67,2.67,0,0,0,1.7,2.48V34.5a2.21,2.21,0,0,0,2.21,2.21h3a2.21,2.21,0,0,0,2.21-2.21V27.36a2.67,2.67,0,0,0,1.7-2.48v-6A2.67,2.67,0,0,0,50.75,16.2Z" transform="translate(-10.68 -8)"/><circle class="cls-2" cx="37.39" cy="4.09" r="3.34"/><path class="cls-2" d="M66.32,16.2H60.79a2.67,2.67,0,0,0-2.67,2.67v6a2.67,2.67,0,0,0,1.7,2.48V34.5A2.21,2.21,0,0,0,62,36.71h3a2.21,2.21,0,0,0,2.21-2.21V27.36A2.67,2.67,0,0,0,69,24.88v-6A2.67,2.67,0,0,0,66.32,16.2Z" transform="translate(-10.68 -8)"/><circle class="cls-2" cx="52.95" cy="4.09" r="3.34"/><path class="cls-2" d="M81.88,16.2H76.35a2.67,2.67,0,0,0-2.67,2.67v6a2.67,2.67,0,0,0,1.7,2.48V34.5a2.21,2.21,0,0,0,2.21,2.21h3a2.21,2.21,0,0,0,2.21-2.21V27.36a2.67,2.67,0,0,0,1.7-2.48v-6A2.67,2.67,0,0,0,81.88,16.2Z" transform="translate(-10.68 -8)"/><circle class="cls-2" cx="68.52" cy="4.09" r="3.34"/><path class="cls-2" d="M97.44,16.2H91.92a2.67,2.67,0,0,0-2.67,2.67v6a2.67,2.67,0,0,0,1.7,2.48V34.5a2.21,2.21,0,0,0,2.21,2.21h3a2.21,2.21,0,0,0,2.21-2.21V27.36a2.67,2.67,0,0,0,1.7-2.48v-6A2.67,2.67,0,0,0,97.44,16.2Z" transform="translate(-10.68 -8)"/><circle class="cls-2" cx="84.08" cy="4.09" r="3.34"/><path class="cls-2" d="M113,16.2h-5.53a2.67,2.67,0,0,0-2.67,2.67v6a2.67,2.67,0,0,0,1.7,2.48V34.5a2.21,2.21,0,0,0,2.21,2.21h3A2.21,2.21,0,0,0,114,34.5V27.36a2.67,2.67,0,0,0,1.7-2.48v-6A2.67,2.67,0,0,0,113,16.2Z" transform="translate(-10.68 -8)"/><circle class="cls-2" cx="99.65" cy="4.09" r="3.34"/><path class="cls-2" d="M128.57,16.2H123a2.67,2.67,0,0,0-2.67,2.67v6a2.67,2.67,0,0,0,1.7,2.48V34.5a2.21,2.21,0,0,0,2.21,2.21h3a2.21,2.21,0,0,0,2.21-2.21V27.36a2.67,2.67,0,0,0,1.7-2.48v-6A2.67,2.67,0,0,0,128.57,16.2Z" transform="translate(-10.68 -8)"/><circle class="cls-2" cx="115.21" cy="4.09" r="3.34"/><path class="cls-2" d="M144.14,16.2h-5.53a2.67,2.67,0,0,0-2.67,2.67v6a2.67,2.67,0,0,0,1.7,2.48V34.5a2.21,2.21,0,0,0,2.21,2.21h3a2.21,2.21,0,0,0,2.21-2.21V27.36a2.67,2.67,0,0,0,1.7-2.48v-6A2.67,2.67,0,0,0,144.14,16.2Z" transform="translate(-10.68 -8)"/><circle class="cls-2" cx="130.77" cy="4.09" r="3.34"/><path class="cls-2" d="M159.7,16.2h-5.53a2.67,2.67,0,0,0-2.67,2.67v6a2.67,2.67,0,0,0,1.7,2.48V34.5a2.21,2.21,0,0,0,2.21,2.21h3a2.21,2.21,0,0,0,2.21-2.21V27.36a2.67,2.67,0,0,0,1.7-2.48v-6A2.67,2.67,0,0,0,159.7,16.2Z" transform="translate(-10.68 -8)"/><circle class="cls-2" cx="146.34" cy="4.09" r="3.34"/><path class="cls-2" d="M19.62,50.2H14.1a2.67,2.67,0,0,0-2.67,2.67v6a2.67,2.67,0,0,0,1.7,2.48V68.5a2.21,2.21,0,0,0,2.21,2.21h3A2.21,2.21,0,0,0,20.6,68.5V61.36a2.67,2.67,0,0,0,1.7-2.48v-6A2.67,2.67,0,0,0,19.62,50.2Z" transform="translate(-10.68 -8)"/><circle class="cls-2" cx="6.26" cy="38.09" r="3.34"/><path class="cls-2" d="M35.19,50.2H29.66A2.67,2.67,0,0,0,27,52.87v6a2.67,2.67,0,0,0,1.7,2.48V68.5a2.21,2.21,0,0,0,2.21,2.21h3a2.21,2.21,0,0,0,2.21-2.21V61.36a2.67,2.67,0,0,0,1.7-2.48v-6A2.67,2.67,0,0,0,35.19,50.2Z" transform="translate(-10.68 -8)"/><circle class="cls-2" cx="21.83" cy="38.09" r="3.34"/><path class="cls-2" d="M50.75,50.2H45.23a2.67,2.67,0,0,0-2.67,2.67v6a2.67,2.67,0,0,0,1.7,2.48V68.5a2.21,2.21,0,0,0,2.21,2.21h3a2.21,2.21,0,0,0,2.21-2.21V61.36a2.67,2.67,0,0,0,1.7-2.48v-6A2.67,2.67,0,0,0,50.75,50.2Z" transform="translate(-10.68 -8)"/><circle class="cls-2" cx="37.39" cy="38.09" r="3.34"/><path class="cls-2" d="M66.32,50.2H60.79a2.67,2.67,0,0,0-2.67,2.67v6a2.67,2.67,0,0,0,1.7,2.48V68.5A2.21,2.21,0,0,0,62,70.71h3a2.21,2.21,0,0,0,2.21-2.21V61.36A2.67,2.67,0,0,0,69,58.88v-6A2.67,2.67,0,0,0,66.32,50.2Z" transform="translate(-10.68 -8)"/><circle class="cls-2" cx="52.95" cy="38.09" r="3.34"/><path class="cls-2" d="M81.88,50.2H76.35a2.67,2.67,0,0,0-2.67,2.67v6a2.67,2.67,0,0,0,1.7,2.48V68.5a2.21,2.21,0,0,0,2.21,2.21h3a2.21,2.21,0,0,0,2.21-2.21V61.36a2.67,2.67,0,0,0,1.7-2.48v-6A2.67,2.67,0,0,0,81.88,50.2Z" transform="translate(-10.68 -8)"/><circle class="cls-2" cx="68.52" cy="38.09" r="3.34"/><path class="cls-2" d="M97.44,50.2H91.92a2.67,2.67,0,0,0-2.67,2.67v6a2.67,2.67,0,0,0,1.7,2.48V68.5a2.21,2.21,0,0,0,2.21,2.21h3a2.21,2.21,0,0,0,2.21-2.21V61.36a2.67,2.67,0,0,0,1.7-2.48v-6A2.67,2.67,0,0,0,97.44,50.2Z" transform="translate(-10.68 -8)"/><circle class="cls-2" cx="84.08" cy="38.09" r="3.34"/><path class="cls-2" d="M113,50.2h-5.53a2.67,2.67,0,0,0-2.67,2.67v6a2.67,2.67,0,0,0,1.7,2.48V68.5a2.21,2.21,0,0,0,2.21,2.21h3A2.21,2.21,0,0,0,114,68.5V61.36a2.67,2.67,0,0,0,1.7-2.48v-6A2.67,2.67,0,0,0,113,50.2Z" transform="translate(-10.68 -8)"/><circle class="cls-2" cx="99.65" cy="38.09" r="3.34"/><path class="cls-2" d="M128.57,50.2H123a2.67,2.67,0,0,0-2.67,2.67v6a2.67,2.67,0,0,0,1.7,2.48V68.5a2.21,2.21,0,0,0,2.21,2.21h3a2.21,2.21,0,0,0,2.21-2.21V61.36a2.67,2.67,0,0,0,1.7-2.48v-6A2.67,2.67,0,0,0,128.57,50.2Z" transform="translate(-10.68 -8)"/><circle class="cls-2" cx="115.21" cy="38.09" r="3.34"/><path class="cls-2" d="M144.14,50.2h-5.53a2.67,2.67,0,0,0-2.67,2.67v6a2.67,2.67,0,0,0,1.7,2.48V68.5a2.21,2.21,0,0,0,2.21,2.21h3a2.21,2.21,0,0,0,2.21-2.21V61.36a2.67,2.67,0,0,0,1.7-2.48v-6A2.67,2.67,0,0,0,144.14,50.2Z" transform="translate(-10.68 -8)"/><circle class="cls-2" cx="130.77" cy="38.09" r="3.34"/><path class="cls-2" d="M159.7,50.2h-5.53a2.67,2.67,0,0,0-2.67,2.67v6a2.67,2.67,0,0,0,1.7,2.48V68.5a2.21,2.21,0,0,0,2.21,2.21h3a2.21,2.21,0,0,0,2.21-2.21V61.36a2.67,2.67,0,0,0,1.7-2.48v-6A2.67,2.67,0,0,0,159.7,50.2Z" transform="translate(-10.68 -8)"/><circle class="cls-2" cx="146.34" cy="38.09" r="3.34"/><path class="cls-2" d="M19.62,84.2H14.1a2.67,2.67,0,0,0-2.67,2.67v6a2.67,2.67,0,0,0,1.7,2.48v7.14a2.21,2.21,0,0,0,2.21,2.21h3a2.21,2.21,0,0,0,2.21-2.21V95.36a2.67,2.67,0,0,0,1.7-2.48v-6A2.67,2.67,0,0,0,19.62,84.2Z" transform="translate(-10.68 -8)"/><circle class="cls-2" cx="6.26" cy="72.09" r="3.34"/><path class="cls-2" d="M35.19,84.2H29.66A2.67,2.67,0,0,0,27,86.87v6a2.67,2.67,0,0,0,1.7,2.48v7.14a2.21,2.21,0,0,0,2.21,2.21h3a2.21,2.21,0,0,0,2.21-2.21V95.36a2.67,2.67,0,0,0,1.7-2.48v-6A2.67,2.67,0,0,0,35.19,84.2Z" transform="translate(-10.68 -8)"/><circle class="cls-2" cx="21.83" cy="72.09" r="3.34"/><path class="cls-2" d="M50.75,84.2H45.23a2.67,2.67,0,0,0-2.67,2.67v6a2.67,2.67,0,0,0,1.7,2.48v7.14a2.21,2.21,0,0,0,2.21,2.21h3a2.21,2.21,0,0,0,2.21-2.21V95.36a2.67,2.67,0,0,0,1.7-2.48v-6A2.67,2.67,0,0,0,50.75,84.2Z" transform="translate(-10.68 -8)"/><circle class="cls-2" cx="37.39" cy="72.09" r="3.34"/><path class="cls-2" d="M66.32,84.2H60.79a2.67,2.67,0,0,0-2.67,2.67v6a2.67,2.67,0,0,0,1.7,2.48v7.14A2.21,2.21,0,0,0,62,104.71h3a2.21,2.21,0,0,0,2.21-2.21V95.36A2.67,2.67,0,0,0,69,92.88v-6A2.67,2.67,0,0,0,66.32,84.2Z" transform="translate(-10.68 -8)"/><circle class="cls-2" cx="52.95" cy="72.09" r="3.34"/><path class="cls-2" d="M81.88,84.2H76.35a2.67,2.67,0,0,0-2.67,2.67v6a2.67,2.67,0,0,0,1.7,2.48v7.14a2.21,2.21,0,0,0,2.21,2.21h3a2.21,2.21,0,0,0,2.21-2.21V95.36a2.67,2.67,0,0,0,1.7-2.48v-6A2.67,2.67,0,0,0,81.88,84.2Z" transform="translate(-10.68 -8)"/><circle class="cls-2" cx="68.52" cy="72.09" r="3.34"/><path class="cls-2" d="M97.44,84.2H91.92a2.67,2.67,0,0,0-2.67,2.67v6a2.67,2.67,0,0,0,1.7,2.48v7.14a2.21,2.21,0,0,0,2.21,2.21h3a2.21,2.21,0,0,0,2.21-2.21V95.36a2.67,2.67,0,0,0,1.7-2.48v-6A2.67,2.67,0,0,0,97.44,84.2Z" transform="translate(-10.68 -8)"/><circle class="cls-2" cx="84.08" cy="72.09" r="3.34"/><path class="cls-2" d="M113,84.2h-5.53a2.67,2.67,0,0,0-2.67,2.67v6a2.67,2.67,0,0,0,1.7,2.48v7.14a2.21,2.21,0,0,0,2.21,2.21h3A2.21,2.21,0,0,0,114,102.5V95.36a2.67,2.67,0,0,0,1.7-2.48v-6A2.67,2.67,0,0,0,113,84.2Z" transform="translate(-10.68 -8)"/><circle class="cls-2" cx="99.65" cy="72.09" r="3.34"/><path class="cls-2" d="M128.57,84.2H123a2.67,2.67,0,0,0-2.67,2.67v6a2.67,2.67,0,0,0,1.7,2.48v7.14a2.21,2.21,0,0,0,2.21,2.21h3a2.21,2.21,0,0,0,2.21-2.21V95.36a2.67,2.67,0,0,0,1.7-2.48v-6A2.67,2.67,0,0,0,128.57,84.2Z" transform="translate(-10.68 -8)"/><circle class="cls-2" cx="115.21" cy="72.09" r="3.34"/><path class="cls-2" d="M144.14,84.2h-5.53a2.67,2.67,0,0,0-2.67,2.67v6a2.67,2.67,0,0,0,1.7,2.48v7.14a2.21,2.21,0,0,0,2.21,2.21h3a2.21,2.21,0,0,0,2.21-2.21V95.36a2.67,2.67,0,0,0,1.7-2.48v-6A2.67,2.67,0,0,0,144.14,84.2Z" transform="translate(-10.68 -8)"/><circle class="cls-2" cx="130.77" cy="72.09" r="3.34"/><path class="cls-2" d="M159.7,84.2h-5.53a2.67,2.67,0,0,0-2.67,2.67v6a2.67,2.67,0,0,0,1.7,2.48v7.14a2.21,2.21,0,0,0,2.21,2.21h3a2.21,2.21,0,0,0,2.21-2.21V95.36a2.67,2.67,0,0,0,1.7-2.48v-6A2.67,2.67,0,0,0,159.7,84.2Z" transform="translate(-10.68 -8)"/><circle class="cls-2" cx="146.34" cy="72.09" r="3.34"/></svg>