<svg id="Layer_4" data-name="Layer 4" xmlns="http://www.w3.org/2000/svg" viewBox="0 0 74 74"><defs><style>.cls-1{fill:#e15829;}.cls-2{fill:none;stroke:#fff;stroke-linejoin:round;stroke-width:2px;}</style></defs><title>people-icon</title><circle class="cls-1" cx="37" cy="37" r="37"/><path class="cls-2" d="M22.52,42.83V50c0,2,.42,3.58,2.39,3.58V64.34h7.17V53.58c2,0,2.39-1.61,2.39-3.58V42.83H22.52Z" transform="translate(-13 -13)"/><path class="cls-2" d="M65.53,42.83V50c0,2,.42,3.58,2.39,3.58V64.34h7.17V53.58c2,0,2.39-1.61,2.39-3.58V42.83H65.53Z" transform="translate(-13 -13)"/><path class="cls-2" d="M41.64,42.83H58.36V54.78a4.79,4.79,0,0,1-4.78,4.78V73.9H46.42V59.56a4.79,4.79,0,0,1-4.78-4.78V42.83Z" transform="translate(-13 -13)"/><path class="cls-2" d="M32.08,34.47a3.59,3.59,0,0,1-3.58,3.58h0a3.59,3.59,0,0,1-3.58-3.58h0a3.59,3.59,0,0,1,3.58-3.58h0a3.59,3.59,0,0,1,3.58,3.58h0Z" transform="translate(-13 -13)"/><path class="cls-2" d="M75.09,34.47a3.59,3.59,0,0,1-3.58,3.58h0a3.59,3.59,0,0,1-3.58-3.58h0a3.59,3.59,0,0,1,3.58-3.58h0a3.59,3.59,0,0,1,3.58,3.58h0Z" transform="translate(-13 -13)"/><path class="cls-2" d="M56,32.08a6,6,0,0,1-6,6h0a6,6,0,0,1-6-6h0a6,6,0,0,1,6-6h0a6,6,0,0,1,6,6h0Z" transform="translate(-13 -13)"/></svg>